{
.appVersion = "3228";
.formatVersion = 3;
DisplayStrings = (
"0542717127
aa0aa aa2aa hh2hh
oo2oo
hh4hh oo4oo",
"ABCDEFGHIJKLMNOPQRSTUVWXYZabcdefghijklmnopqrstuvwxyz0123456789 。.,:;…!¡?¿·•*‖〃#///backslash ＊＼：，！＃．？＂th＇；／＿-–—_〜－th₍th₎(th)[]〈〉「」［］（）‚„“E”
‘h’«»‹›\"g60'60฿@&§©®™°|¦†‡¢¤$€₴₽₹₪£₩¥+−×÷=≠><≥≤±≈~¬^∞∫∏∑√∂%‰"
);
date = "2023-10-16 11:25:55 +0000";
familyName = Wheatpaste034;
fontMaster = (
{
iconName = Bold;
id = m01;
metricValues = (
{
over = 16;
pos = 800;
},
{
over = 16;
pos = 700;
},
{
over = 16;
pos = 500;
},
{
over = -16;
},
{
over = -16;
pos = -200;
},
{
}
);
name = Bold;
userData = {
GSCornerRadius = 111;
};
}
);
glyphs = (
{
glyphname = A;
lastChange = "2024-01-24 11:00:25 +0000";
layers = (
{
layerId = m01;
shapes = (
{
closed = 1;
nodes = (
(70,34,o),
(155,97,o),
(161,125,cs),
(197,289,o),
(241,452,o),
(276,615,cs),
(283,649,o),
(174,547,o),
(168,521,cs),
(135,369,o),
(110,217,o),
(77,65,cs)
);
},
{
closed = 1;
nodes = (
(25,145,o),
(-32,-25,o),
(-1,3,cs),
(18,20,o),
(51,30,o),
(82,29,cs),
(107,28,o),
(131,19,o),
(144,1,cs),
(158,-19,o),
(221,151,o),
(208,169,cs),
(194,187,o),
(170,197,o),
(143,199,cs),
(110,200,o),
(74,190,o),
(49,167,cs)
);
},
{
closed = 1;
nodes = (
(81,407,o),
(24,237,o),
(34,237,cs),
(63,237,o),
(92,237,o),
(121,237,c),
(124,236,o),
(132,244,o),
(136,243,c),
(193,243,o),
(249,242,o),
(305,242,c),
(313,244,o),
(322,237,o),
(330,238,c),
(365,238,o),
(401,238,o),
(437,238,cs),
(449,238,o),
(509,408,o),
(497,408,cs),
(462,408,o),
(426,408,o),
(390,408,c),
(379,405,o),
(370,394,o),
(359,392,c),
(305,391,o),
(251,390,o),
(198,389,c),
(191,392,o),
(189,404,o),
(181,407,c),
(152,407,o),
(123,407,o),
(94,407,cs)
);
},
{
closed = 1;
nodes = (
(386,719,o),
(244,615,o),
(276,615,cs),
(295,615,o),
(279,215,o),
(284,62,cs),
(286,6,o),
(307,-9,o),
(351,4,cs),
(386,14,o),
(507,143,o),
(467,132,cs),
(435,123,o),
(415,132,o),
(414,184,cs),
(409,327,o),
(448,719,o),
(412,719,cs)
);
},
{
closed = 1;
nodes = (
(231,595,o),
(227,503,o),
(237,511,cs),
(266,534,o),
(295,557,o),
(324,580,cs),
(333,587,o),
(339,681,o),
(328,672,cs),
(299,649,o),
(270,626,o),
(241,603,cs)
);
}
);
width = 534;
}
);
unicode = 65;
},
{
glyphname = B;
lastChange = "2024-01-24 11:00:25 +0000";
layers = (
{
layerId = m01;
shapes = (
{
closed = 1;
nodes = (
(291,-3,o),
(414,143,o),
(391,147,cs),
(325,160,o),
(270,169,o),
(226,175,cs),
(122,189,o),
(69,187,o),
(42,168,cs),
(19,152,o),
(-40,-19,o),
(-12,0,cs),
(-6,4,o),
(48,27,o),
(180,14,cs),
(207,11,o),
(237,7,o),
(271,1,cs)
);
},
{
closed = 1;
nodes = (
(172,636,o),
(81,569,o),
(74,529,cs),
(56,425,o),
(29,118,o),
(27,106,cs),
(23,66,o),
(111,135,o),
(115,172,cs),
(115,172,o),
(148,501,o),
(164,591,cs)
);
},
{
closed = 1;
nodes = (
(187,256,o),
(250,244,o),
(316,326,cs),
(437,475,o),
(448,574,o),
(408,636,cs),
(358,714,o),
(225,730,o),
(129,705,cs),
(106,699,o),
(14,543,o),
(43,551,cs),
(154,580,o),
(241,562,o),
(280,516,cs),
(316,475,o),
(313,411,o),
(254,338,cs)
);
},
{
closed = 1;
nodes = (
(107,484,o),
(45,315,o),
(64,309,cs),
(214,262,o),
(287,230,o),
(318,205,cs),
(355,176,o),
(335,156,o),
(315,132,cs),
(238,40,o),
(280,-5,o),
(361,92,cs),
(467,219,o),
(484,293,o),
(448,343,cs),
(402,406,o),
(272,433,o),
(126,479,cs)
);
}
);
width = 505;
}
);
unicode = 66;
},
{
glyphname = C;
lastChange = "2024-01-24 11:00:25 +0000";
layers = (
{
guides = (
{
pos = (692,541);
}
);
layerId = m01;
shapes = (
{
closed = 1;
nodes = (
(414,662,o),
(284,596,o),
(233,543,cs),
(40,342,o),
(-1,194,o),
(28,101,cs),
(68,-27,o),
(241,-51,o),
(332,35,cs),
(365,66,o),
(441,249,o),
(404,213,cs),
(326,139,o),
(198,138,o),
(166,223,cs),
(140,292,o),
(178,417,o),
(361,607,cs)
);
},
{
closed = 1;
nodes = (
(413,593,o),
(466,761,o),
(434,727,cs),
(410,703,o),
(290,694,o),
(250,732,cs),
(234,747,o),
(170,579,o),
(186,564,cs),
(228,525,o),
(350,528,o),
(386,565,cs)
);
}
);
width = 474;
}
);
unicode = 67;
},
{
glyphname = D;
lastChange = "2024-01-24 11:00:25 +0000";
layers = (
{
layerId = m01;
shapes = (
{
closed = 1;
nodes = (
(96,725,o),
(32,554,o),
(50,545,cs),
(185,484,o),
(266,415,o),
(310,348,cs),
(370,258,o),
(362,172,o),
(328,115,cs),
(286,46,o),
(342,39,o),
(386,111,cs),
(458,228,o),
(469,338,o),
(430,436,cs),
(385,548,o),
(275,643,o),
(114,717,cs)
);
},
{
closed = 1;
nodes = (
(45,48,o),
(125,43,o),
(128,95,cs),
(139,309,o),
(170,614,o),
(150,641,cs),
(119,680,o),
(53,634,o),
(86,591,cs),
(87,591,o),
(61,358,o),
(48,99,cs)
);
},
{
closed = 1;
nodes = (
(304,-4,o),
(423,146,o),
(383,150,cs),
(160,174,o),
(110,202,o),
(65,167,cs),
(41,148,o),
(-16,-22,o),
(13,1,cs),
(26,12,o),
(64,22,o),
(271,0,cs)
);
}
);
width = 512;
}
);
unicode = 68;
},
{
glyphname = E;
lastChange = "2024-01-24 11:00:25 +0000";
layers = (
{
layerId = m01;
shapes = (
{
closed = 1;
nodes = (
(180,664,o),
(96,602,o),
(93,575,cs),
(74,390,o),
(57,200,o),
(39,29,cs),
(34,-15,o),
(55,0,o),
(63,6,cs),
(90,30,o),
(121,35,o),
(170,19,cs),
(238,-2,o),
(329,-18,o),
(379,25,cs),
(402,44,o),
(448,218,o),
(421,195,cs),
(385,166,o),
(294,169,o),
(232,189,cs),
(181,205,o),
(154,206,o),
(99,160,c),
(107,152,o),
(115,144,o),
(123,137,c),
(141,314,o),
(160,472,o),
(177,635,cs)
);
},
{
closed = 1;
nodes = (
(68,438,o),
(8,268,o),
(29,268,cs),
(137,269,o),
(245,269,o),
(352,269,cs),
(372,269,o),
(434,439,o),
(412,439,cs),
(304,438,o),
(196,438,o),
(89,438,cs)
);
},
{
closed = 1;
nodes = (
(440,549,o),
(487,723,o),
(460,703,cs),
(435,685,o),
(359,695,o),
(281,701,cs),
(208,707,o),
(133,709,o),
(98,681,cs),
(75,662,o),
(31,491,o),
(56,511,cs),
(91,539,o),
(177,531,o),
(258,524,cs),
(327,518,o),
(392,513,o),
(418,533,cs)
);
}
);
width = 498;
}
);
unicode = 69;
},
{
glyphname = F;
lastChange = "2024-01-24 11:00:25 +0000";
layers = (
{
layerId = m01;
shapes = (
{
closed = 1;
nodes = (
(183,673,o),
(101,602,o),
(98,574,cs),
(81,405,o),
(65,236,o),
(48,68,cs),
(45,36,o),
(127,110,o),
(130,136,cs),
(147,305,o),
(163,474,o),
(180,642,cs)
);
},
{
closed = 1;
nodes = (
(440,561,o),
(483,733,o),
(454,705,cs),
(436,688,o),
(359,691,o),
(283,695,cs),
(211,698,o),
(139,702,o),
(114,690,cs),
(91,678,o),
(37,508,o),
(62,520,cs),
(89,534,o),
(187,523,o),
(274,519,cs),
(337,516,o),
(394,518,o),
(414,537,cs)
);
},
{
closed = 1;
nodes = (
(367,285,o),
(415,459,o),
(389,444,cs),
(353,424,o),
(130,457,o),
(86,431,cs),
(63,418,o),
(18,245,o),
(42,259,cs),
(80,281,o),
(303,248,o),
(345,272,cs)
);
},
{
closed = 1;
nodes = (
(24,143,o),
(-32,-27,o),
(-1,2,cs),
(17,19,o),
(49,28,o),
(79,28,cs),
(105,27,o),
(130,18,o),
(144,0,cs),
(159,-19,o),
(221,150,o),
(208,168,cs),
(190,191,o),
(156,200,o),
(122,197,cs),
(95,195,o),
(68,184,o),
(49,166,cs)
);
}
);
width = 434;
}
);
unicode = 70;
},
{
glyphname = G;
lastChange = "2024-01-24 11:00:25 +0000";
layers = (
{
layerId = m01;
shapes = (
{
closed = 1;
nodes = (
(422,660,o),
(329,642,o),
(280,599,cs),
(43,390,o),
(-24,209,o),
(15,92,cs),
(26,59,o),
(45,31,o),
(72,9,cs),
(110,-22,o),
(169,-16,o),
(183,-16,cs),
(192,-16,o),
(371,140,o),
(403,186,cs),
(423,217,o),
(414,266,o),
(391,234,cs),
(375,209,o),
(263,116,o),
(263,116,cs),
(259,116,o),
(225,115,o),
(198,137,cs),
(162,167,o),
(141,205,o),
(138,250,cs),
(131,341,o),
(200,464,o),
(372,615,cs)
);
},
{
closed = 1;
nodes = (
(247,351,o),
(159,219,o),
(220,267,cs),
(234,279,o),
(276,285,o),
(298,257,cs),
(308,245,o),
(314,227,o),
(312,200,cs),
(309,135,o),
(300,72,o),
(293,6,cs),
(287,-58,o),
(299,-105,o),
(334,-100,cs),
(361,-97,o),
(487,33,o),
(454,28,cs),
(431,25,o),
(428,50,o),
(435,114,cs),
(441,178,o),
(450,244,o),
(454,308,cs),
(455,344,o),
(438,377,o),
(412,396,cs),
(381,419,o),
(337,423,o),
(296,391,cs)
);
},
{
closed = 1;
nodes = (
(397,593,o),
(450,761,o),
(418,727,cs),
(405,714,o),
(365,705,o),
(324,706,cs),
(288,707,o),
(253,715,o),
(234,732,cs),
(218,747,o),
(154,579,o),
(170,564,cs),
(189,547,o),
(225,537,o),
(261,536,cs),
(305,535,o),
(350,544,o),
(370,565,cs)
);
}
);
width = 525;
}
);
unicode = 71;
},
{
glyphname = H;
lastChange = "2024-01-24 11:00:25 +0000";
layers = (
{
guides = (
{
pos = (103,-2);
},
{
pos = (204,711);
},
{
pos = (1015,217);
}
);
layerId = m01;
shapes = (
{
closed = 1;
nodes = (
(84,438,o),
(23,268,o),
(44,268,cs),
(188,269,o),
(333,269,o),
(477,269,cs),
(496,269,o),
(558,439,o),
(537,439,cs),
(393,438,o),
(248,438,o),
(104,438,cs)
);
},
{
closed = 1;
nodes = (
(168,702,o),
(38,571,o),
(77,580,cs),
(86,583,o),
(97,564,o),
(92,488,cs),
(82,361,o),
(72,234,o),
(63,106,cs),
(57,39,o),
(81,-4,o),
(104,0,cs),
(134,5,o),
(261,138,o),
(226,132,cs),
(191,126,o),
(203,155,o),
(207,218,cs),
(217,345,o),
(227,472,o),
(236,600,cs),
(241,660,o),
(230,717,o),
(199,710,cs)
);
},
{
closed = 1;
nodes = (
(437,702,o),
(307,571,o),
(346,580,cs),
(355,583,o),
(366,564,o),
(361,488,cs),
(351,361,o),
(341,234,o),
(332,106,cs),
(326,39,o),
(350,-4,o),
(373,0,cs),
(403,5,o),
(530,138,o),
(495,132,cs),
(460,126,o),
(472,155,o),
(476,218,cs),
(486,345,o),
(496,472,o),
(505,600,cs),
(510,660,o),
(499,717,o),
(468,710,cs)
);
}
);
width = 581;
}
);
unicode = 72;
},
{
glyphname = I;
lastChange = "2024-01-24 11:00:25 +0000";
layers = (
{
layerId = m01;
shapes = (
{
closed = 1;
nodes = (
(156,702,o),
(26,571,o),
(65,580,cs),
(74,583,o),
(85,565,o),
(80,488,cs),
(70,361,o),
(60,234,o),
(51,106,cs),
(45,39,o),
(69,-4,o),
(92,0,cs),
(122,5,o),
(249,138,o),
(214,132,cs),
(179,126,o),
(191,155,o),
(195,218,cs),
(205,345,o),
(215,472,o),
(224,600,cs),
(229,661,o),
(218,717,o),
(187,710,cs)
);
}
);
width = 275;
}
);
unicode = 73;
},
{
glyphname = J;
lastChange = "2024-01-24 11:00:25 +0000";
layers = (
{
layerId = m01;
shapes = (
{
closed = 1;
nodes = (
(103,-23,o),
(215,118,o),
(211,141,cs),
(206,163,o),
(185,194,o),
(160,217,cs),
(136,240,o),
(106,255,o),
(82,247,cs),
(54,237,o),
(-54,93,o),
(-18,105,cs),
(2,112,o),
(33,92,o),
(58,66,cs),
(78,46,o),
(94,21,o),
(97,3,cs)
);
},
{
closed = 1;
nodes = (
(322,702,o),
(192,571,o),
(231,580,cs),
(240,583,o),
(253,563,o),
(246,488,cs),
(236,399,o),
(226,309,o),
(217,219,cs),
(203,96,o),
(201,120,o),
(199,119,cs),
(128,64,o),
(56,-40,o),
(135,21,cs),
(356,193,o),
(356,281,o),
(361,331,cs),
(371,420,o),
(381,510,o),
(390,600,cs),
(397,661,o),
(384,717,o),
(353,710,cs)
);
}
);
width = 427;
}
);
unicode = 74;
},
{
glyphname = K;
lastChange = "2024-01-24 11:00:25 +0000";
layers = (
{
layerId = m01;
shapes = (
{
closed = 1;
nodes = (
(294,459,o),
(174,324,o),
(192,314,cs),
(202,308,o),
(228,232,o),
(264,156,cs),
(301,81,o),
(346,5,o),
(394,0,cs),
(416,-2,o),
(533,135,o),
(508,138,cs),
(467,142,o),
(426,209,o),
(391,280,cs),
(352,359,o),
(322,443,o),
(310,450,cs)
);
},
{
closed = 1;
nodes = (
(134,696,o),
(10,562,o),
(54,579,cs),
(64,583,o),
(71,566,o),
(66,496,cs),
(56,370,o),
(46,244,o),
(37,118,cs),
(32,54,o),
(32,0,o),
(77,0,cs),
(103,0,o),
(234,152,o),
(201,152,cs),
(178,152,o),
(177,165,o),
(181,230,cs),
(191,356,o),
(201,482,o),
(210,608,cs),
(215,663,o),
(208,723,o),
(170,709,cs)
);
},
{
closed = 1;
nodes = (
(502,572,o),
(556,740,o),
(525,711,cs),
(508,695,o),
(478,686,o),
(449,685,cs),
(422,685,o),
(395,694,o),
(380,713,cs),
(366,731,o),
(301,564,o),
(316,545,cs),
(329,528,o),
(352,518,o),
(376,516,cs),
(411,512,o),
(449,523,o),
(475,547,cs)
);
},
{
closed = 1;
nodes = (
(509,609,o),
(402,615,o),
(385,596,cs),
(363,570,o),
(72,259,o),
(64,251,cs),
(45,230,o),
(153,226,o),
(170,243,cs),
(178,252,o),
(468,563,o),
(491,588,cs)
);
}
);
width = 564;
}
);
unicode = 75;
},
{
glyphname = L;
lastChange = "2024-01-24 11:00:25 +0000";
layers = (
{
layerId = m01;
shapes = (
{
closed = 1;
nodes = (
(48,92,o),
(-3,-43,o),
(43,11,cs),
(70,42,o),
(122,59,o),
(169,37,cs),
(210,16,o),
(273,-19,o),
(325,18,cs),
(350,36,o),
(407,206,o),
(377,184,cs),
(337,155,o),
(304,170,o),
(263,189,cs),
(208,217,o),
(150,210,o),
(87,137,cs)
);
},
{
closed = 1;
nodes = (
(147,703,o),
(20,575,o),
(57,583,cs),
(77,587,o),
(71,561,o),
(65,490,cs),
(52,334,o),
(41,177,o),
(27,21,cs),
(24,-16,o),
(164,122,o),
(167,155,cs),
(179,303,o),
(194,450,o),
(207,598,cs),
(211,649,o),
(217,717,o),
(177,709,cs)
);
}
);
width = 426;
}
);
unicode = 76;
},
{
glyphname = M;
lastChange = "2024-01-24 11:00:25 +0000";
layers = (
{
layerId = m01;
shapes = (
{
closed = 1;
nodes = (
(254,730,o),
(126,605,o),
(137,587,cs),
(208,475,o),
(239,49,o),
(294,-2,cs),
(308,-15,o),
(435,111,o),
(420,124,cs),
(369,171,o),
(336,599,o),
(265,713,cs)
);
},
{
closed = 1;
nodes = (
(19,62,o),
(119,114,o),
(127,138,cs),
(206,371,o),
(209,655,o),
(209,657,cs),
(211,683,o),
(128,605,o),
(127,583,cs),
(126,572,o),
(109,329,o),
(29,92,cs)
);
},
{
closed = 1;
nodes = (
(287,128,o),
(388,164,o),
(396,186,cs),
(484,407,o),
(534,620,o),
(536,640,cs),
(541,673,o),
(456,614,o),
(452,584,cs),
(450,574,o),
(382,367,o),
(298,154,cs)
);
},
{
closed = 1;
nodes = (
(588,737,o),
(459,613,o),
(459,585,cs),
(463,472,o),
(459,4,o),
(533,-1,cs),
(556,-2,o),
(679,123,o),
(651,125,cs),
(587,129,o),
(593,586,o),
(589,707,cs)
);
},
{
closed = 1;
nodes = (
(-1,143,o),
(-57,-27,o),
(-26,2,cs),
(-7,20,o),
(31,30,o),
(65,27,cs),
(89,25,o),
(111,17,o),
(123,0,cs),
(138,-19,o),
(200,150,o),
(187,168,cs),
(170,190,o),
(136,200,o),
(101,197,cs),
(73,195,o),
(44,185,o),
(24,166,cs)
);
}
);
width = 715;
}
);
unicode = 77;
},
{
glyphname = N;
lastChange = "2024-01-24 11:00:25 +0000";
layers = (
{
layerId = m01;
shapes = (
{
closed = 1;
nodes = (
(175,728,o),
(54,609,o),
(64,591,cs),
(155,428,o),
(255,129,o),
(358,2,cs),
(370,-13,o),
(491,107,o),
(478,122,cs),
(377,247,o),
(277,546,o),
(186,709,cs)
);
},
{
closed = 1;
nodes = (
(-11,145,o),
(-67,-25,o),
(-36,4,cs),
(-15,23,o),
(23,33,o),
(56,29,cs),
(78,26,o),
(97,18,o),
(109,2,cs),
(124,-17,o),
(186,152,o),
(173,170,cs),
(156,191,o),
(126,201,o),
(94,200,cs),
(65,198,o),
(35,188,o),
(14,168,cs)
);
},
{
closed = 1;
nodes = (
(530,570,o),
(584,738,o),
(553,709,cs),
(532,690,o),
(493,680,o),
(459,685,cs),
(438,688,o),
(419,696,o),
(408,711,cs),
(394,729,o),
(329,562,o),
(344,543,cs),
(361,521,o),
(392,512,o),
(424,513,cs),
(453,515,o),
(482,526,o),
(503,545,cs)
);
},
{
closed = 1;
nodes = (
(23,4,o),
(113,62,o),
(122,107,cs),
(133,167,o),
(173,635,o),
(173,636,cs),
(177,683,o),
(87,621,o),
(83,578,cs),
(81,562,o),
(44,116,o),
(32,55,cs)
);
},
{
closed = 1;
nodes = (
(348,4,o),
(438,62,o),
(447,107,cs),
(458,167,o),
(498,635,o),
(498,636,cs),
(502,683,o),
(412,621,o),
(408,578,cs),
(406,562,o),
(369,116,o),
(357,55,cs)
);
}
);
width = 557;
}
);
unicode = 78;
},
{
glyphname = O;
lastChange = "2024-01-24 11:00:25 +0000";
layers = (
{
layerId = m01;
shapes = (
{
closed = 1;
nodes = (
(115,33,o),
(97,-64,o),
(208,14,cs),
(322,95,o),
(448,246,o),
(433,430,cs),
(426,519,o),
(386,615,o),
(295,715,cs),
(281,731,o),
(184,546,o),
(199,529,cs),
(279,441,o),
(315,368,o),
(325,310,cs),
(351,164,o),
(218,105,o),
(216,104,cs)
);
},
{
closed = 1;
nodes = (
(280,591,o),
(340,763,o),
(273,698,cs),
(198,625,o),
(-39,289,o),
(5,103,cs),
(19,44,o),
(61,0,o),
(146,-15,cs),
(183,-22,o),
(340,119,o),
(296,127,cs),
(205,144,o),
(160,184,o),
(143,234,cs),
(100,358,o),
(223,536,o),
(223,536,cs)
);
}
);
width = 469;
}
);
unicode = 79;
},
{
glyphname = P;
lastChange = "2024-01-24 11:00:25 +0000";
layers = (
{
guides = (
{
pos = (113,716);
},
{
pos = (-217,587);
},
{
pos = (-226,373);
}
);
layerId = m01;
shapes = (
{
closed = 1;
nodes = (
(197,226,o),
(266,221,o),
(330,305,cs),
(433,439,o),
(454,539,o),
(428,607,cs),
(391,701,o),
(263,732,o),
(140,707,cs),
(118,702,o),
(35,564,o),
(62,569,cs),
(203,598,o),
(285,560,o),
(309,494,cs),
(328,443,o),
(311,374,o),
(260,307,cs)
);
},
{
closed = 1;
nodes = (
(266,214,o),
(383,364,o),
(334,369,cs),
(182,386,o),
(130,407,o),
(98,394,cs),
(76,386,o),
(17,216,o),
(40,226,cs),
(48,229,o),
(86,234,o),
(224,219,cs)
);
},
{
closed = 1;
nodes = (
(217,629,o),
(76,519,o),
(74,492,cs),
(66,363,o),
(58,235,o),
(49,106,cs),
(45,42,o),
(58,0,o),
(89,0,cs),
(113,0,o),
(240,130,o),
(211,130,cs),
(190,130,o),
(186,150,o),
(191,214,cs),
(199,343,o),
(207,471,o),
(216,600,cs)
);
}
);
width = 443;
}
);
unicode = 80;
},
{
glyphname = Q;
lastChange = "2024-01-24 11:00:25 +0000";
layers = (
{
layerId = m01;
shapes = (
{
closed = 1;
nodes = (
(263,335,o),
(219,290,o),
(221,273,cs),
(229,214,o),
(266,95,o),
(328,29,cs),
(360,-5,o),
(399,-25,o),
(444,-13,cs),
(468,-7,o),
(541,194,o),
(514,187,cs),
(465,175,o),
(412,182,o),
(367,201,cs),
(314,225,o),
(272,267,o),
(265,319,cs)
);
},
{
closed = 1;
nodes = (
(136,33,o),
(118,-64,o),
(229,14,cs),
(345,96,o),
(472,250,o),
(453,436,cs),
(445,524,o),
(404,618,o),
(316,715,cs),
(302,731,o),
(205,546,o),
(220,529,cs),
(274,469,o),
(308,417,o),
(327,371,cs),
(408,180,o),
(239,105,o),
(237,104,cs)
);
},
{
closed = 1;
nodes = (
(301,591,o),
(361,763,o),
(294,698,cs),
(219,625,o),
(-20,287,o),
(26,101,cs),
(41,43,o),
(83,0,o),
(167,-15,cs),
(204,-22,o),
(361,119,o),
(317,127,cs),
(235,142,o),
(191,176,o),
(170,220,cs),
(111,343,o),
(244,536,o),
(244,536,cs)
);
}
);
width = 580;
}
);
unicode = 81;
},
{
glyphname = R;
lastChange = "2024-01-24 11:00:25 +0000";
layers = (
{
guides = (
{
angle = 180;
pos = (332,360);
},
{
pos = (178,564);
}
);
layerId = m01;
shapes = (
{
closed = 1;
nodes = (
(174,621,o),
(103,470,o),
(105,421,cs),
(110,268,o),
(323,-23,o),
(394,0,cs),
(414,7,o),
(476,178,o),
(452,170,cs),
(363,139,o),
(180,442,o),
(175,575,cs)
);
},
{
closed = 1;
nodes = (
(14,143,o),
(-42,-27,o),
(-11,2,cs),
(8,19,o),
(41,29,o),
(72,27,cs),
(97,26,o),
(120,18,o),
(134,0,cs),
(149,-19,o),
(211,150,o),
(198,168,cs),
(181,189,o),
(151,199,o),
(119,198,cs),
(90,196,o),
(60,185,o),
(39,166,cs)
);
},
{
closed = 1;
nodes = (
(173,642,o),
(80,560,o),
(76,462,cs),
(68,287,o),
(74,300,o),
(54,63,cs),
(50,17,o),
(129,64,o),
(132,105,cs),
(154,358,o),
(160,373,o),
(168,540,cs)
);
},
{
closed = 1;
nodes = (
(190,257,o),
(236,226,o),
(308,308,cs),
(449,466,o),
(462,570,o),
(420,633,cs),
(362,717,o),
(202,727,o),
(111,695,cs),
(87,687,o),
(-4,530,o),
(25,541,cs),
(176,594,o),
(290,553,o),
(309,474,cs),
(319,435,o),
(305,387,o),
(260,336,cs)
);
}
);
width = 517;
}
);
unicode = 82;
},
{
glyphname = S;
lastChange = "2024-01-24 11:00:25 +0000";
layers = (
{
layerId = m01;
shapes = (
{
closed = 1;
nodes = (
(265,418,o),
(389,525,o),
(415,574,cs),
(432,608,o),
(424,656,o),
(395,687,cs),
(360,724,o),
(293,734,o),
(203,660,cs),
(134,603,o),
(93,526,o),
(169,588,cs),
(194,609,o),
(247,588,o),
(277,552,cs),
(297,529,o),
(306,499,o),
(291,470,cs)
);
},
{
closed = 1;
nodes = (
(204,663,o),
(78,551,o),
(60,509,cs),
(16,409,o),
(93,359,o),
(162,294,cs),
(227,234,o),
(302,188,o),
(260,86,cs),
(245,49,o),
(370,163,o),
(386,202,cs),
(438,326,o),
(349,356,o),
(284,416,cs),
(215,479,o),
(150,539,o),
(186,623,cs)
);
},
{
closed = 1;
nodes = (
(155,274,o),
(27,159,o),
(10,117,cs),
(-3,85,o),
(10,38,o),
(43,10,cs),
(82,-24,o),
(150,-33,o),
(235,40,cs),
(305,99,o),
(340,171,o),
(263,106,cs),
(249,95,o),
(208,106,o),
(175,130,cs),
(144,154,o),
(120,189,o),
(136,227,cs)
);
}
);
width = 464;
}
);
unicode = 83;
},
{
glyphname = T;
lastChange = "2024-01-24 11:00:25 +0000";
layers = (
{
layerId = m01;
shapes = (
{
closed = 1;
nodes = (
(427,565,o),
(487,733,o),
(440,710,cs),
(388,685,o),
(145,739,o),
(85,686,cs),
(61,665,o),
(18,494,o),
(43,516,cs),
(93,559,o),
(320,513,o),
(388,546,cs)
);
},
{
closed = 1;
nodes = (
(347,628,o),
(296,646,o),
(263,602,cs),
(139,443,o),
(78,262,o),
(70,164,cs),
(61,53,o),
(126,-31,o),
(210,-14,cs),
(243,-7,o),
(374,106,o),
(336,98,cs),
(274,85,o),
(192,177,o),
(200,280,cs),
(205,336,o),
(229,475,o),
(311,582,cs)
);
}
);
width = 422;
}
);
unicode = 84;
},
{
glyphname = U;
lastChange = "2024-01-24 11:00:25 +0000";
layers = (
{
layerId = m01;
shapes = (
{
closed = 1;
nodes = (
(395,376,o),
(355,382,o),
(352,355,cs),
(325,114,o),
(253,124,o),
(241,124,cs),
(192,120,o),
(180,203,o),
(189,293,cs),
(200,394,o),
(209,495,o),
(219,596,cs),
(226,664,o),
(194,723,o),
(142,706,cs),
(109,695,o),
(-13,565,o),
(28,578,cs),
(72,593,o),
(79,550,o),
(75,502,cs),
(64,401,o),
(55,300,o),
(45,199,cs),
(34,96,o),
(97,-23,o),
(193,-16,cs),
(317,-6,o),
(377,220,o),
(392,351,cs)
);
},
{
closed = 1;
nodes = (
(415,-1,o),
(531,117,o),
(503,117,cs),
(461,117,o),
(463,199,o),
(472,293,cs),
(483,394,o),
(493,495,o),
(503,596,cs),
(510,664,o),
(477,723,o),
(425,706,cs),
(392,695,o),
(270,565,o),
(311,578,cs),
(355,593,o),
(364,550,o),
(359,502,cs),
(348,401,o),
(338,300,o),
(328,199,cs),
(316,88,o),
(338,-1,o),
(391,-1,cs)
);
}
);
width = 567;
}
);
unicode = 85;
},
{
glyphname = V;
lastChange = "2024-01-24 11:00:25 +0000";
layers = (
{
layerId = m01;
shapes = (
{
closed = 1;
nodes = (
(505,648,o),
(409,626,o),
(403,605,cs),
(344,404,o),
(253,121,o),
(239,30,cs),
(235,8,o),
(344,111,o),
(347,134,cs),
(357,195,o),
(446,446,o),
(499,625,cs)
);
},
{
closed = 1;
nodes = (
(533,572,o),
(587,740,o),
(556,711,cs),
(537,693,o),
(503,684,o),
(472,686,cs),
(447,687,o),
(424,695,o),
(411,713,cs),
(397,731,o),
(332,564,o),
(347,545,cs),
(363,525,o),
(390,515,o),
(419,515,cs),
(450,515,o),
(483,526,o),
(506,547,cs)
);
},
{
closed = 1;
nodes = (
(248,6,o),
(372,144,o),
(321,121,cs),
(309,115,o),
(243,487,o),
(215,635,cs),
(205,689,o),
(158,721,o),
(124,711,cs),
(92,701,o),
(-31,571,o),
(8,583,cs),
(46,595,o),
(77,563,o),
(87,511,cs),
(113,371,o),
(163,-33,o),
(203,-15,cs)
);
}
);
width = 505;
}
);
unicode = 86;
},
{
glyphname = W;
lastChange = "2024-01-24 11:00:25 +0000";
layers = (
{
layerId = m01;
shapes = (
{
closed = 1;
nodes = (
(382,-18,o),
(510,110,o),
(500,127,cs),
(471,181,o),
(460,318,o),
(449,447,cs),
(438,570,o),
(427,686,o),
(399,711,cs),
(385,724,o),
(264,605,o),
(279,591,cs),
(300,572,o),
(309,493,o),
(317,397,cs),
(328,251,o),
(336,67,o),
(372,1,cs)
);
},
{
closed = 1;
nodes = (
(682,646,o),
(577,599,o),
(568,574,cs),
(484,331,o),
(408,37,o),
(405,26,cs),
(397,-1,o),
(512,110,o),
(519,138,cs),
(522,149,o),
(589,376,o),
(672,618,cs)
);
},
{
closed = 1;
nodes = (
(429,637,o),
(335,597,o),
(325,571,cs),
(284,463,o),
(181,70,o),
(180,70,cs),
(124,-1,o),
(204,57,o),
(260,126,cs),
(295,171,o),
(391,535,o),
(419,609,cs)
);
},
{
closed = 1;
nodes = (
(128,-19,o),
(256,109,o),
(249,128,cs),
(224,198,o),
(220,333,o),
(212,456,cs),
(203,601,o),
(188,728,o),
(126,709,cs),
(94,700,o),
(-21,577,o),
(18,589,cs),
(70,604,o),
(77,485,o),
(82,343,cs),
(87,222,o),
(91,85,o),
(121,2,cs)
);
},
{
closed = 1;
nodes = (
(699,573,o),
(753,742,o),
(722,712,cs),
(702,693,o),
(663,683,o),
(628,687,cs),
(605,690,o),
(585,698,o),
(573,714,cs),
(559,732,o),
(495,566,o),
(509,546,cs),
(526,524,o),
(559,515,o),
(592,517,cs),
(622,518,o),
(652,529,o),
(672,548,cs)
);
}
);
width = 701;
}
);
unicode = 87;
},
{
glyphname = X;
lastChange = "2024-01-24 11:00:25 +0000";
layers = (
{
layerId = m01;
shapes = (
{
closed = 1;
nodes = (
(483,616,o),
(374,594,o),
(358,570,cs),
(350,558,o),
(300,476,o),
(245,386,cs),
(171,264,o),
(88,128,o),
(88,128,cs),
(73,102,o),
(183,127,o),
(196,149,cs),
(202,158,o),
(247,232,o),
(298,317,cs),
(367,431,o),
(449,564,o),
(466,590,cs)
);
},
{
closed = 1;
nodes = (
(402,-4,o),
(508,140,o),
(472,127,cs),
(440,115,o),
(380,278,o),
(318,435,cs),
(258,587,o),
(197,734,o),
(156,713,cs),
(123,696,o),
(19,552,o),
(60,573,cs),
(89,588,o),
(145,445,o),
(204,296,cs),
(266,137,o),
(332,-29,o),
(372,-15,cs)
);
},
{
closed = 1;
nodes = (
(85,-47,o),
(198,91,o),
(200,122,cs),
(201,145,o),
(188,172,o),
(171,196,cs),
(151,223,o),
(126,245,o),
(106,250,cs),
(88,255,o),
(-24,113,o),
(-2,108,cs),
(9,104,o),
(32,85,o),
(51,61,cs),
(71,36,o),
(87,7,o),
(86,-12,cs)
);
},
{
closed = 1;
nodes = (
(454,448,o),
(565,591,o),
(543,596,cs),
(529,600,o),
(507,620,o),
(488,643,cs),
(469,668,o),
(454,696,o),
(455,716,cs),
(456,749,o),
(343,616,o),
(341,582,cs),
(340,562,o),
(351,538,o),
(366,516,cs),
(387,485,o),
(416,459,o),
(435,454,cs)
);
}
);
width = 541;
}
);
unicode = 88;
},
{
glyphname = Y;
lastChange = "2024-01-24 11:00:25 +0000";
layers = (
{
layerId = m01;
shapes = (
{
closed = 1;
nodes = (
(530,703,o),
(415,647,o),
(394,579,cs),
(390,566,o),
(159,112,o),
(151,98,cs),
(112,21,o),
(217,52,o),
(255,126,cs),
(257,130,o),
(495,592,o),
(508,631,cs)
);
},
{
closed = 1;
nodes = (
(531,572,o),
(585,740,o),
(554,711,cs),
(536,694,o),
(505,685,o),
(475,685,cs),
(449,686,o),
(423,694,o),
(409,713,cs),
(395,731,o),
(330,564,o),
(345,545,cs),
(358,528,o),
(380,518,o),
(405,516,cs),
(439,512,o),
(478,523,o),
(504,547,cs)
);
},
{
closed = 1;
nodes = (
(272,336,o),
(381,461,o),
(327,433,cs),
(303,421,o),
(281,473,o),
(257,536,cs),
(225,622,o),
(190,726,o),
(147,709,cs),
(111,695,o),
(-9,565,o),
(35,583,cs),
(65,594,o),
(90,510,o),
(119,431,cs),
(148,357,o),
(180,287,o),
(225,311,cs)
);
},
{
closed = 1;
nodes = (
(114,143,o),
(58,-27,o),
(89,2,cs),
(107,18,o),
(137,28,o),
(167,28,cs),
(194,27,o),
(220,19,o),
(234,0,cs),
(249,-19,o),
(311,150,o),
(298,168,cs),
(283,187,o),
(258,197,o),
(230,198,cs),
(198,199,o),
(163,188,o),
(139,166,cs)
);
}
);
width = 513;
}
);
unicode = 89;
},
{
glyphname = Z;
lastChange = "2024-01-24 11:00:25 +0000";
layers = (
{
layerId = m01;
shapes = (
{
closed = 1;
nodes = (
(22,122,o),
(-25,-40,o),
(30,6,cs),
(67,39,o),
(123,25,o),
(181,12,cs),
(242,-2,o),
(305,-16,o),
(354,25,cs),
(377,44,o),
(423,218,o),
(396,195,cs),
(349,156,o),
(293,175,o),
(234,189,cs),
(179,200,o),
(122,207,o),
(66,160,cs)
);
},
{
closed = 1;
nodes = (
(97,657,o),
(42,487,o),
(76,524,cs),
(102,552,o),
(165,543,o),
(235,536,cs),
(289,531,o),
(349,526,o),
(399,540,cs),
(420,546,o),
(481,717,o),
(457,710,cs),
(403,694,o),
(342,703,o),
(285,709,cs),
(219,717,o),
(158,723,o),
(124,686,cs)
);
},
{
closed = 1;
nodes = (
(433,604,o),
(335,590,o),
(326,568,cs),
(268,426,o),
(81,211,o),
(46,100,cs),
(39,78,o),
(138,94,o),
(144,114,cs),
(177,219,o),
(364,434,o),
(424,582,cs)
);
},
{
closed = 1;
nodes = (
(135,444,o),
(76,273,o),
(104,292,cs),
(123,305,o),
(158,292,o),
(196,277,cs),
(238,260,o),
(283,240,o),
(312,252,cs),
(334,261,o),
(394,431,o),
(368,420,cs),
(349,412,o),
(319,423,o),
(288,435,cs),
(240,455,o),
(188,480,o),
(158,460,cs)
);
}
);
width = 467;
}
);
unicode = 90;
},
{
glyphname = a;
lastChange = "2024-01-24 11:00:25 +0000";
layers = (
{
background = {
shapes = (
{
closed = 1;
nodes = (
);
}
);
};
guides = (
{
pos = (289,715);
}
);
layerId = m01;
shapes = (
{
closed = 1;
nodes = (
(299.266,-5.856,o),
(439.509,140.39,o),
(412.498,146.49,cs),
(387.585,152.115,o),
(398.143,241.06,o),
(411.399,427.812,cs),
(415.368,483.718,o),
(418.545,507.564,o),
(424.61,578.565,cs),
(427,612,o),
(420,656,o),
(400,685,cs),
(365,733,o),
(293,737,o),
(164.746,570.971,cs),
(98.828,485.743,o),
(145.077,480.882,o),
(213.254,569.029,cs),
(214,570,o),
(243,575,o),
(263,546,cs),
(275,529,o),
(284,498,o),
(279.39,445.435,cs),
(273.128,372.122,o),
(270.724,350.276,o),
(266.601,292.188,cs),
(252.171,88.917,o),
(238.415,7.885,o),
(275.502,-0.49,cs)
);
},
{
closed = 1;
nodes = (
(54.063,397.675,o),
(-6.603,228.223,o),
(13.998,228.275,cs),
(146.331,228.608,o),
(278.665,228.942,o),
(410.998,229.275,cs),
(430.491,229.324,o),
(492.496,398.779,o),
(471.002,398.725,cs),
(338.669,398.392,o),
(206.335,398.058,o),
(74.002,397.725,cs)
);
},
{
closed = 1;
nodes = (
(261.086,666.733,o),
(166.917,592.022,o),
(131.625,525.852,cs),
(116.951,498.337,o),
(99.821,453.624,o),
(92.945,407.147,cs),
(78.351,308.487,o),
(62.965,154.09,o),
(45.452,15.927,cs),
(38.995,-35.009,o),
(130.933,33.776,o),
(136.548,78.073,cs),
(155.035,223.91,o),
(171.68,384.917,o),
(187.055,488.853,cs),
(194.044,536.1,o),
(221.049,591.663,o),
(222.375,594.148,cs)
);
}
);
width = 515;
}
);
unicode = 97;
},
{
glyphname = b;
lastChange = "2024-01-24 11:00:25 +0000";
layers = (
{
guides = (
{
pos = (310,715);
}
);
layerId = m01;
shapes = (
{
closed = 1;
nodes = (
(230,643,o),
(107,571,o),
(83,518,cs),
(15,364,o),
(32,128,o),
(32,119,cs),
(32,77,o),
(143,154,o),
(142,193,cs),
(142,194,o),
(148,459,o),
(203,582,cs)
);
},
{
closed = 1;
nodes = (
(46,207,o),
(59,101,o),
(79,184,cs),
(102,280,o),
(247,327,o),
(328,288,cs),
(374,267,o),
(398,217,o),
(367,133,cs),
(345,76,o),
(455,196,o),
(475,249,cs),
(504,323,o),
(487,379,o),
(449,415,cs),
(351,506,o),
(109,469,o),
(63,278,cs)
);
},
{
closed = 1;
nodes = (
(159,376,o),
(150,285,o),
(231,345,cs),
(477,526,o),
(468,665,o),
(382,705,cs),
(296,744,o),
(134,685,o),
(66,473,cs),
(32,364,o),
(110,342,o),
(146,455,cs),
(173,541,o),
(268,570,o),
(303,550,cs),
(327,535,o),
(320,495,o),
(233,431,cs)
);
},
{
closed = 1;
nodes = (
(502,334,o),
(477,354,o),
(443,257,cs),
(413,174,o),
(315,142,o),
(237,152,cs),
(162,162,o),
(106,211,o),
(150,295,cs),
(188,368,o),
(91,277,o),
(52,203,cs),
(-2,100,o),
(59,10,o),
(154,-10,cs),
(254,-31,o),
(392,28,o),
(467,237,cs)
);
}
);
width = 517;
}
);
unicode = 98;
},
{
glyphname = c;
lastChange = "2024-01-24 11:00:25 +0000";
layers = (
{
guides = (
{
pos = (324,715);
}
);
layerId = m01;
shapes = (
{
closed = 1;
nodes = (
(286,642,o),
(218,636,o),
(151,545,cs),
(35,389,o),
(12,227,o),
(43,117,cs),
(84,-27,o),
(220,-80,o),
(366,91,cs),
(442,179,o),
(451,282,o),
(368,185,cs),
(289,94,o),
(196,165,o),
(167,282,cs),
(146,362,o),
(156,464,o),
(219,551,cs)
);
},
{
closed = 1;
nodes = (
(343,483,o),
(470,610,o),
(461,628,cs),
(449,650,o),
(424,704,o),
(376,713,cs),
(344,720,o),
(302,707,o),
(249,652,cs),
(179,582,o),
(141,482,o),
(217,560,cs),
(246,589,o),
(304,557,o),
(333,502,cs)
);
}
);
width = 471;
}
);
unicode = 99;
},
{
glyphname = d;
lastChange = "2024-01-24 11:00:25 +0000";
layers = (
{
guides = (
{
pos = (295,715);
}
);
layerId = m01;
shapes = (
{
closed = 1;
nodes = (
(124,725,o),
(47,562,o),
(65,553,cs),
(193,482,o),
(266,409,o),
(307,349,cs),
(357,275,o),
(360,221,o),
(356,213,cs),
(306,111,o),
(378,121,o),
(428,223,cs),
(473,314,o),
(472,393,o),
(435,465,cs),
(389,556,o),
(285,636,o),
(141,715,cs)
);
},
{
closed = 1;
nodes = (
(171,592,o),
(89,567,o),
(87,546,cs),
(73,394,o),
(60,242,o),
(47,90,cs),
(45,68,o),
(127,94,o),
(129,114,cs),
(143,266,o),
(156,418,o),
(169,570,cs)
);
},
{
closed = 1;
nodes = (
(48,233,o),
(-15,49,o),
(3,37,cs),
(42,9,o),
(87,-13,o),
(137,-15,cs),
(212,-19,o),
(296,22,o),
(385,152,cs),
(441,232,o),
(404,281,o),
(347,198,cs),
(326,168,o),
(280,147,o),
(218,155,cs),
(175,161,o),
(123,180,o),
(65,221,cs)
);
}
);
width = 497;
}
);
unicode = 100;
},
{
glyphname = e;
lastChange = "2024-01-24 11:00:25 +0000";
layers = (
{
guides = (
{
pos = (306,715);
}
);
layerId = m01;
shapes = (
{
closed = 1;
nodes = (
(310.619,455.27,o),
(438.273,582.885,o),
(431.224,601.745,cs),
(392.718,704.775,o),
(317.905,729.798,o),
(266.869,705.868,cs),
(158,655,o),
(104,506,o),
(75,361,cs),
(48,223,o),
(42,89,o),
(32.974,41.429,cs),
(21.81,-16.033,o),
(42.447,-1.122,o),
(44.28,-0.471,cs),
(88.537,15.265,o),
(120.535,22.899,o),
(170.729,14.3,cs),
(231.032,3.969,o),
(311.837,-26.937,o),
(377.092,26.453,cs),
(419.082,60.809,o),
(460.103,227.433,o),
(408.908,185.547,cs),
(386.163,166.937,o),
(286.989,174.155,o),
(231.271,183.7,cs),
(187.482,191.201,o),
(151.463,192.735,o),
(105.72,176.471,c),
(109.489,162.504,o),
(113.257,148.537,o),
(117.026,134.571,c),
(166.152,387.425,o),
(182.891,538.077,o),
(217.131,554.132,cs),
(243.161,566.338,o),
(266.819,572.464,o),
(302.776,476.255,cs)
);
},
{
closed = 1;
nodes = (
(63.231,437.661,o),
(2.981,268.21,o),
(24.276,268.276,cs),
(131.943,268.609,o),
(239.61,268.942,o),
(347.276,269.276,cs),
(367.333,269.338,o),
(428.893,438.793,o),
(406.724,438.724,cs),
(299.057,438.391,o),
(191.39,438.058,o),
(83.724,437.724,cs)
);
}
);
width = 483;
}
);
unicode = 101;
},
{
glyphname = f;
lastChange = "2024-01-24 11:00:25 +0000";
layers = (
{
layerId = m01;
shapes = (
{
closed = 1;
nodes = (
(443,604,o),
(479,759,o),
(435,701,cs),
(414,674,o),
(351,659,o),
(309,659,cs),
(254,659,o),
(192,681,o),
(159,710,cs),
(129,738,o),
(80,578,o),
(80,574,cs),
(61,383,o),
(37,200,o),
(20,17,cs),
(15,-31,o),
(108,31,o),
(112,77,cs),
(132,282,o),
(145,487,o),
(164,684,c),
(138,638,o),
(111,593,o),
(85,548,c),
(124,511,o),
(192,489,o),
(249,489,cs),
(303,489,o),
(352,486,o),
(403,553,cs)
);
},
{
closed = 1;
nodes = (
(343,226,o),
(393,399,o),
(372,400,cs),
(274,400,o),
(175,401,o),
(77,402,cs),
(58,402,o),
(8,229,o),
(29,228,cs),
(127,228,o),
(226,227,o),
(324,226,cs)
);
}
);
width = 431;
}
);
unicode = 102;
},
{
glyphname = g;
lastChange = "2024-01-24 11:00:25 +0000";
layers = (
{
layerId = m01;
shapes = (
{
closed = 1;
nodes = (
(271,641,o),
(207,632,o),
(139,541,cs),
(-2,354,o),
(-14,161,o),
(39,59,cs),
(89,-37,o),
(197,-52,o),
(306,95,cs),
(384,200,o),
(395,284,o),
(314,175,cs),
(267,112,o),
(196,157,o),
(160,245,cs),
(127,327,o),
(125,447,o),
(203,551,cs)
);
},
{
closed = 1;
nodes = (
(269,350,o),
(181,218,o),
(242,266,cs),
(255,277,o),
(288,286,o),
(311,272,cs),
(326,263,o),
(337,244,o),
(334,209,cs),
(332,168,o),
(324,126,o),
(319,85,cs),
(311,14,o),
(335,-5,o),
(343,-14,cs),
(356,-29,o),
(484,98,o),
(471,112,cs),
(465,119,o),
(453,128,o),
(461,193,cs),
(465,234,o),
(473,275,o),
(476,317,cs),
(478,350,o),
(464,378,o),
(441,396,cs),
(410,420,o),
(361,424,o),
(318,390,cs)
);
},
{
closed = 1;
nodes = (
(354,482,o),
(481,609,o),
(471,626,cs),
(448,666,o),
(380,779,o),
(249,659,cs),
(185,601,o),
(126,482,o),
(199,549,cs),
(251,596,o),
(313,551,o),
(343,500,cs)
);
}
);
width = 526;
}
);
unicode = 103;
},
{
glyphname = h;
lastChange = "2024-01-24 11:00:25 +0000";
layers = (
{
layerId = m01;
shapes = (
{
closed = 1;
nodes = (
(84,437,o),
(23,267,o),
(44,267,cs),
(188,268,o),
(333,268,o),
(477,268,cs),
(496,268,o),
(558,438,o),
(537,438,cs),
(393,437,o),
(248,437,o),
(104,437,cs)
);
},
{
closed = 1;
nodes = (
(205,726,o),
(75,603,o),
(85,584,cs),
(102,552,o),
(103,548,o),
(98,500,cs),
(87,369,o),
(79,237,o),
(69,106,cs),
(64,39,o),
(78,20,o),
(107,0,cs),
(123,-11,o),
(250,116,o),
(233,128,cs),
(210,144,o),
(206,153,o),
(211,214,cs),
(221,345,o),
(228,477,o),
(240,608,cs),
(244,662,o),
(234,674,o),
(215,708,cs)
);
},
{
closed = 1;
nodes = (
(473,726,o),
(343,603,o),
(353,584,cs),
(370,553,o),
(370,548,o),
(366,500,cs),
(356,369,o),
(347,237,o),
(337,106,cs),
(332,39,o),
(346,20,o),
(375,0,cs),
(391,-11,o),
(518,116,o),
(501,128,cs),
(478,144,o),
(474,153,o),
(479,214,cs),
(489,345,o),
(498,477,o),
(508,608,cs),
(512,662,o),
(502,673,o),
(483,708,cs)
);
}
);
width = 581;
}
);
unicode = 104;
},
{
glyphname = i;
lastChange = "2024-01-24 11:00:25 +0000";
layers = (
{
layerId = m01;
shapes = (
{
closed = 1;
nodes = (
(187,726,o),
(57,603,o),
(67,584,cs),
(84,553,o),
(85,548,o),
(80,490,cs),
(70,362,o),
(61,234,o),
(51,106,cs),
(46,39,o),
(60,20,o),
(89,0,cs),
(105,-11,o),
(232,116,o),
(215,128,cs),
(192,144,o),
(188,153,o),
(193,214,cs),
(202,342,o),
(211,470,o),
(222,598,cs),
(227,662,o),
(216,673,o),
(197,708,cs)
);
}
);
width = 273;
}
);
unicode = 105;
},
{
glyphname = j;
lastChange = "2024-01-24 11:00:25 +0000";
layers = (
{
layerId = m01;
shapes = (
{
closed = 1;
nodes = (
(149,307,o),
(20,198,o),
(-2,153,cs),
(-32,92,o),
(-7,25,o),
(46,-3,cs),
(99,-31,o),
(178,-20,o),
(254,77,cs),
(303,141,o),
(308,230,o),
(254,161,cs),
(223,121,o),
(172,116,o),
(140,137,cs),
(110,156,o),
(95,198,o),
(124,257,cs)
);
},
{
closed = 1;
nodes = (
(435,741,o),
(299,652,o),
(274,597,cs),
(263,572,o),
(263,566,o),
(257,506,cs),
(247,379,o),
(239,253,o),
(229,126,cs),
(221,13,o),
(279,132,o),
(278,131,cs),
(226,99,o),
(123,-24,o),
(186,15,cs),
(271,67,o),
(368,203,o),
(371,234,cs),
(380,361,o),
(388,488,o),
(399,614,cs),
(404,676,o),
(405,674,o),
(410,685,cs)
);
},
{
closed = 1;
nodes = (
(354,618,o),
(419,727,o),
(366,685,cs),
(338,663,o),
(303,658,o),
(272,664,cs),
(231,670,o),
(196,693,o),
(187,713,cs),
(178,735,o),
(75,590,o),
(85,567,cs),
(92,549,o),
(128,529,o),
(176,530,cs),
(215,530,o),
(261,544,o),
(308,581,cs)
);
}
);
width = 443;
}
);
unicode = 106;
},
{
glyphname = k;
lastChange = "2024-01-24 11:00:25 +0000";
layers = (
{
guides = (
{
pos = (169,711);
}
);
layerId = m01;
shapes = (
{
closed = 1;
nodes = (
(157,721,o),
(26,591,o),
(42,578,cs),
(47,575,o),
(65,551,o),
(61,496,cs),
(51,370,o),
(41,244,o),
(32,118,cs),
(26,48,o),
(33,20,o),
(69,0,cs),
(89,-11,o),
(220,140,o),
(199,152,cs),
(185,160,o),
(172,170,o),
(176,230,cs),
(186,356,o),
(196,482,o),
(205,608,cs),
(211,677,o),
(183,701,o),
(172,710,cs)
);
},
{
closed = 1;
nodes = (
(564,734,o),
(432,709,o),
(389,659,cs),
(368,636,o),
(105,291,o),
(102,288,cs),
(66,242,o),
(202,287,o),
(236,330,cs),
(248,345,o),
(495,655,o),
(517,681,cs)
);
},
{
closed = 1;
nodes = (
(87,291,o),
(58,164,o),
(111,222,cs),
(187,303,o),
(273,306,o),
(320,255,cs),
(358,214,o),
(370,138,o),
(329,40,cs),
(289,-55,o),
(440,33,o),
(475,116,cs),
(537,264,o),
(503,365,o),
(431,409,cs),
(351,459,o),
(224,440,o),
(131,338,cs)
);
}
);
width = 567;
}
);
unicode = 107;
},
{
glyphname = l;
lastChange = "2024-01-24 11:00:25 +0000";
layers = (
{
layerId = m01;
shapes = (
{
closed = 1;
nodes = (
(167,721,o),
(36,591,o),
(52,578,cs),
(57,575,o),
(75,551,o),
(71,496,cs),
(61,370,o),
(51,244,o),
(42,118,cs),
(37,54,o),
(37,0,o),
(82,0,cs),
(108,0,o),
(239,152,o),
(206,152,cs),
(183,152,o),
(182,165,o),
(186,230,cs),
(196,356,o),
(206,482,o),
(215,608,cs),
(221,677,o),
(193,701,o),
(182,710,cs)
);
},
{
closed = 1;
nodes = (
(151,125,o),
(75,-7,o),
(122,30,cs),
(150,53,o),
(182,58,o),
(211,54,cs),
(254,47,o),
(290,21,o),
(299,1,cs),
(308,-22,o),
(410,127,o),
(401,147,cs),
(394,165,o),
(361,189,o),
(317,195,cs),
(280,200,o),
(234,192,o),
(188,156,cs)
);
}
);
width = 422;
}
);
unicode = 108;
},
{
glyphname = m;
lastChange = "2024-01-24 11:00:25 +0000";
layers = (
{
layerId = m01;
shapes = (
{
closed = 1;
nodes = (
(221,720,o),
(91,591,o),
(107,579,cs),
(141,555,o),
(176,413,o),
(201,265,cs),
(217,170,o),
(228,73,o),
(232,3,cs),
(234,-25,o),
(365,104,o),
(364,129,cs),
(359,208,o),
(346,321,o),
(327,427,cs),
(303,562,o),
(270,685,o),
(237,709,cs)
);
},
{
closed = 1;
nodes = (
(-18,-34,o),
(80,31,o),
(92,79,cs),
(112,158,o),
(127,237,o),
(139,310,cs),
(170,491,o),
(179,633,o),
(179,634,cs),
(182,667,o),
(90,587,o),
(87,556,cs),
(86,549,o),
(78,456,o),
(57,323,cs),
(43,235,o),
(23,130,o),
(-4,21,cs)
);
},
{
closed = 1;
nodes = (
(207,55,o),
(324,127,o),
(347,174,cs),
(459,398,o),
(511,637,o),
(511,639,cs),
(523,686,o),
(412,596,o),
(401,551,cs),
(398,541,o),
(342,327,o),
(233,106,cs)
);
},
{
closed = 1;
nodes = (
(531,707,o),
(399,575,o),
(427,575,cs),
(448,575,o),
(443,403,o),
(448,244,cs),
(451,142,o),
(458,44,o),
(478,1,cs),
(488,-19,o),
(618,111,o),
(610,129,cs),
(584,183,o),
(580,314,o),
(578,438,cs),
(576,577,o),
(576,707,o),
(553,707,cs)
);
}
);
width = 655;
}
);
unicode = 109;
},
{
glyphname = n;
lastChange = "2024-01-24 11:00:25 +0000";
layers = (
{
layerId = m01;
shapes = (
{
closed = 1;
nodes = (
(170,725,o),
(49,606,o),
(59,588,cs),
(108,500,o),
(165,365,o),
(224,244,cs),
(275,139,o),
(328,44,o),
(377,0,cs),
(391,-13,o),
(512,107,o),
(497,120,cs),
(464,149,o),
(473,149,o),
(509,598,cs),
(514,661,o),
(503,673,o),
(485,707,cs),
(475,726,o),
(351,609,o),
(361,591,cs),
(379,559,o),
(380,555,o),
(375,496,cs),
(339,39,o),
(336,37,o),
(377,0,cs),
(391,-13,o),
(512,107,o),
(497,120,cs),
(441,170,o),
(380,289,o),
(321,413,cs),
(271,520,o),
(223,630,o),
(181,706,cs)
);
},
{
closed = 1;
nodes = (
(20,-30,o),
(111,27,o),
(121,72,cs),
(132,126,o),
(172,594,o),
(172,595,cs),
(176,642,o),
(86,580,o),
(82,537,cs),
(80,521,o),
(43,75,o),
(31,22,cs)
);
}
);
width = 570;
}
);
unicode = 110;
},
{
glyphname = o;
lastChange = "2024-01-24 09:28:30 +0000";
layers = (
{
layerId = m01;
shapes = (
{
closed = 1;
nodes = (
(265.325,659.434,o),
(172.892,617.163,o),
(118.74,529.794,cs),
(-1,337,o),
(-11,166,o),
(35,69,cs),
(77,-21,o),
(167,-49,o),
(260.379,26.807,cs),
(321.035,75.811,o),
(404.087,248.123,o),
(333.621,191.193,cs),
(261,132,o),
(196,154,o),
(162,220,cs),
(122,297,o),
(126,435,o),
(211.26,572.206,cs)
);
},
{
closed = 1;
nodes = (
(210.034,54.669,o),
(282.573,60,o),
(354.199,159.567,cs),
(484,340,o),
(493,503,o),
(451,605,cs),
(412,702,o),
(327,744,o),
(254.263,693.894,cs),
(192.123,650.666,o),
(79.811,485.288,o),
(155.737,538.106,cs),
(231,591,o),
(301,500,o),
(322,386,cs),
(336,307,o),
(327,218,o),
(281.801,154.433,cs)
);
}
);
width = 494;
}
);
unicode = 111;
},
{
glyphname = p;
lastChange = "2024-01-24 11:00:25 +0000";
layers = (
{
guides = (
{
pos = (712,374);
},
{
pos = (624,569);
}
);
layerId = m01;
shapes = (
{
closed = 1;
nodes = (
(211,577,o),
(93,517,o),
(61,458,cs),
(12,371,o),
(15,16,o),
(15,11,cs),
(14,-33,o),
(140,59,o),
(141,99,cs),
(141,113,o),
(147,463,o),
(175,514,cs)
);
},
{
closed = 1;
nodes = (
(113,273,o),
(192,259,o),
(264,326,cs),
(427,480,o),
(451,604,o),
(412,668,cs),
(351,768,o),
(143,729,o),
(56,451,cs),
(22,343,o),
(100,323,o),
(136,437,cs),
(178,569,o),
(283,594,o),
(299,537,cs),
(309,502,o),
(284,434,o),
(184,340,cs)
);
},
{
closed = 1;
nodes = (
(277,325,o),
(345,430,o),
(273,383,cs),
(236,359,o),
(123,383,o),
(111,433,cs),
(102,469,o),
(34,329,o),
(43,295,cs),
(51,264,o),
(70,242,o),
(104,241,cs),
(131,241,o),
(166,253,o),
(213,283,cs)
);
}
);
width = 428;
}
);
unicode = 112;
},
{
glyphname = q;
lastChange = "2024-01-24 11:00:25 +0000";
layers = (
{
background = {
shapes = (
{
closed = 1;
nodes = (
);
},
{
closed = 1;
nodes = (
);
}
);
};
guides = (
{
pos = (298,713);
}
);
layerId = m01;
shapes = (
{
closed = 1;
nodes = (
(241,345,o),
(186,285,o),
(198,260,cs),
(211,234,o),
(352,-9,o),
(352,-9,cs),
(366,-33,o),
(421,27,o),
(408,51,cs),
(400,65,o),
(273,281,o),
(254,320,cs)
);
},
{
closed = 1;
nodes = (
(266,659,o),
(174,617,o),
(120,530,cs),
(6,346,o),
(-9,184,o),
(28,86,cs),
(67,-17,o),
(160,-52,o),
(254,24,cs),
(307,66,o),
(402,243,o),
(342,194,cs),
(254,123,o),
(180,160,o),
(152,248,cs),
(125,329,o),
(138,452,o),
(212,572,cs)
);
},
{
closed = 1;
nodes = (
(213,42,o),
(289,82,o),
(356,176,cs),
(466,329,o),
(485,469,o),
(459,568,cs),
(429,687,o),
(335,746,o),
(257,695,cs),
(196,655,o),
(81,488,o),
(155,537,cs),
(216,577,o),
(278,521,o),
(310,434,cs),
(342,346,o),
(344,224,o),
(282,138,cs)
);
}
);
width = 489;
}
);
unicode = 113;
},
{
glyphname = r;
lastChange = "2024-01-24 11:00:25 +0000";
layers = (
{
guides = (
{
pos = (287,713);
}
);
layerId = m01;
shapes = (
{
closed = 1;
nodes = (
(215,631,o),
(96,569,o),
(65,511,cs),
(-8,374,o),
(13,16,o),
(13,11,cs),
(15,-32,o),
(140,61,o),
(139,101,cs),
(138,116,o),
(123,459,o),
(181,567,cs)
);
},
{
closed = 1;
nodes = (
(131,346,o),
(132,263,o),
(211,325,cs),
(400,472,o),
(435,594,o),
(400,659,cs),
(346,760,o),
(125,727,o),
(42,452,cs),
(10,343,o),
(89,326,o),
(124,440,cs),
(152,535,o),
(258,565,o),
(286,535,cs),
(305,515,o),
(292,472,o),
(207,405,cs)
);
},
{
closed = 1;
nodes = (
(21,288,o),
(-8,160,o),
(45,216,cs),
(117,292,o),
(203,298,o),
(251,253,cs),
(292,214,o),
(306,140,o),
(263,41,cs),
(223,-55,o),
(373,31,o),
(409,115,cs),
(460,234,o),
(448,320,o),
(404,371,cs),
(331,456,o),
(171,446,o),
(65,334,cs)
);
}
);
width = 485;
}
);
unicode = 114;
},
{
glyphname = s;
lastChange = "2024-01-24 11:00:25 +0000";
layers = (
{
guides = (
{
pos = (271,713);
}
);
layerId = m01;
shapes = (
{
closed = 1;
nodes = (
(50,270,o),
(-16,106,o),
(-3,80,cs),
(13,48,o),
(71,-13,o),
(144,-15,cs),
(194,-17,o),
(250,8,o),
(305,86,cs),
(478,333,o),
(380,352,o),
(275,420,cs),
(116,524,o),
(147,553,o),
(151,558,cs),
(160,571,o),
(205,570,o),
(252,548,cs),
(291,530,o),
(332,498,o),
(355,447,cs),
(366,422,o),
(429,592,o),
(419,613,cs),
(411,632,o),
(381,669,o),
(341,692,cs),
(284,725,o),
(205,731,o),
(131,626,cs),
(-26,405,o),
(47,358,o),
(151,290,cs),
(311,185,o),
(298,174,o),
(283,152,cs),
(273,137,o),
(231,135,o),
(186,149,cs),
(139,164,o),
(88,195,o),
(63,246,cs)
);
}
);
width = 445;
}
);
unicode = 115;
},
{
glyphname = t;
lastChange = "2024-01-24 11:00:25 +0000";
layers = (
{
layerId = m01;
shapes = (
{
closed = 1;
nodes = (
(430,541,o),
(498,708,o),
(456,701,cs),
(357,684,o),
(144,717,o),
(81,684,cs),
(59,672,o),
(13,500,o),
(37,512,cs),
(90,539,o),
(295,518,o),
(396,535,cs)
);
},
{
closed = 1;
nodes = (
(285,570,o),
(151,443,o),
(160,423,cs),
(173,393,o),
(112,82,o),
(145,2,cs),
(154,-18,o),
(285,113,o),
(277,132,cs),
(246,206,o),
(309,513,o),
(294,549,cs)
);
}
);
width = 439;
}
);
unicode = 116;
},
{
glyphname = u;
lastChange = "2024-01-24 11:00:25 +0000";
layers = (
{
guides = (
{
pos = (274,713);
}
);
layerId = m01;
shapes = (
{
closed = 1;
nodes = (
(162,721,o),
(26,584,o),
(48,573,cs),
(77,560,o),
(68,400,o),
(46,131,cs),
(41,80,o),
(56,29,o),
(87,2,cs),
(129,-34,o),
(202,-25,o),
(300,93,cs),
(356,161,o),
(379,244,o),
(318,171,cs),
(271,115,o),
(230,109,o),
(205,139,cs),
(187,161,o),
(178,202,o),
(182,255,cs),
(206,531,o),
(219,694,o),
(180,713,cs)
);
},
{
closed = 1;
nodes = (
(244,75,o),
(297,85,o),
(349,157,cs),
(379,199,o),
(406,260,o),
(413,301,cs),
(436,436,o),
(440,564,o),
(445,698,cs),
(446,745,o),
(355,673,o),
(353,630,cs),
(348,490,o),
(343,360,o),
(319,221,cs),
(308,154,o),
(298,150,o),
(297,149,cs)
);
}
);
width = 465;
}
);
unicode = 117;
},
{
glyphname = v;
lastChange = "2024-01-24 11:00:25 +0000";
layers = (
{
guides = (
{
pos = (278,713);
}
);
layerId = m01;
shapes = (
{
closed = 1;
nodes = (
(517,752,o),
(403,675,o),
(385,618,cs),
(327,435,o),
(221,86,o),
(208,30,cs),
(199,-7,o),
(329,116,o),
(336,148,cs),
(345,186,o),
(445,525,o),
(497,690,cs)
);
},
{
closed = 1;
nodes = (
(190,-27,o),
(323,106,o),
(308,119,cs),
(290,133,o),
(271,144,o),
(257,229,cs),
(245,304,o),
(241,428,o),
(216,599,cs),
(206,666,o),
(191,708,o),
(162,713,cs),
(143,717,o),
(14,589,o),
(38,585,cs),
(49,582,o),
(71,546,o),
(80,481,cs),
(105,316,o),
(101,194,o),
(113,123,cs),
(128,28,o),
(150,5,o),
(174,-15,cs)
);
}
);
width = 475;
}
);
unicode = 118;
},
{
glyphname = w;
lastChange = "2024-01-24 11:00:25 +0000";
layers = (
{
guides = (
{
pos = (288,713);
}
);
layerId = m01;
shapes = (
{
closed = 1;
nodes = (
(365.713,-16.955,o),
(486.251,103.084,o),
(476.577,120.467,cs),
(444,179,o),
(438,323,o),
(431,455,cs),
(426,576,o),
(420,687,o),
(394.104,712.104,cs),
(380.591,725.087,o),
(259.186,606.029,o),
(273.896,591.896,cs),
(302,565,o),
(303,410,o),
(311,262,cs),
(318,155,o),
(328,51,o),
(355.423,1.533,cs)
);
},
{
closed = 1;
nodes = (
(718.226,749.698,o),
(600.134,678.837,o),
(578.33,625.909,cs),
(548,553,o),
(522,482,o),
(501,417,cs),
(429,203,o),
(400,44,o),
(398.742,40.167,cs),
(391.506,8.137,o),
(501.727,124.493,o),
(509.258,157.833,cs),
(511,165,o),
(537,266,o),
(592,424,cs),
(619,501,o),
(653,591,o),
(693.67,690.091,cs)
);
},
{
closed = 1;
nodes = (
(128.713,-16.955,o),
(249.251,103.084,o),
(239.577,120.467,cs),
(210,174,o),
(202,296,o),
(195,416,cs),
(188,552,o),
(184,685,o),
(156.104,712.104,cs),
(142.681,725.259,o),
(21.324,606.176,o),
(35.896,591.896,cs),
(58,570,o),
(63,462,o),
(69,343,cs),
(76,210,o),
(84,63,o),
(118.423,1.533,cs)
);
},
{
closed = 1;
nodes = (
(421.728,640.114,o),
(326.43,611.512,o),
(317.714,588.651,cs),
(295,530,o),
(271,450,o),
(247,369,cs),
(202,210,o),
(163,48,o),
(160.737,39.298,cs),
(151.492,3.692,o),
(259.028,118.986,o),
(267.263,150.702,cs),
(269,157,o),
(296,257,o),
(331,371,cs),
(357,455,o),
(386,547,o),
(412.286,615.349,cs)
);
}
);
width = 656;
}
);
unicode = 119;
},
{
glyphname = x;
lastChange = "2024-01-24 11:00:25 +0000";
layers = (
{
guides = (
{
pos = (246,713);
}
);
layerId = m01;
shapes = (
{
closed = 1;
nodes = (
(582,742,o),
(459,711,o),
(417,649,cs),
(407,635,o),
(346,546,o),
(274,440,cs),
(153,262,o),
(0,36,o),
(0,36,cs),
(-45,-30,o),
(80,4,o),
(120,64,cs),
(120,64,o),
(212,199,o),
(310,342,cs),
(413,495,o),
(524,657,o),
(537,677,cs)
);
},
{
closed = 1;
nodes = (
(405,4,o),
(513,148,o),
(484,142,cs),
(451,137,o),
(388,288,o),
(324,436,cs),
(261,580,o),
(197,723,o),
(159,712,cs),
(133,705,o),
(24,561,o),
(55,570,cs),
(88,579,o),
(153,424,o),
(218,274,cs),
(280,132,o),
(342,-7,o),
(378,0,cs)
);
}
);
width = 527;
}
);
unicode = 120;
},
{
glyphname = y;
lastChange = "2024-01-24 11:00:25 +0000";
layers = (
{
guides = (
{
pos = (271,713);
}
);
layerId = m01;
shapes = (
{
closed = 1;
nodes = (
(581,751,o),
(466,708,o),
(422,628,cs),
(404,594,o),
(138,44,o),
(137,42,cs),
(96,-42,o),
(218,13,o),
(255,90,cs),
(267,114,o),
(515,627,o),
(536,666,cs)
);
},
{
closed = 1;
nodes = (
(277,330,o),
(391,458,o),
(341,434,cs),
(311,420,o),
(284,480,o),
(256,549,cs),
(222,632,o),
(187,726,o),
(143,711,cs),
(109,699,o),
(-13,569,o),
(29,583,cs),
(67,596,o),
(98,484,o),
(137,398,cs),
(164,338,o),
(195,291,o),
(235,310,cs)
);
}
);
width = 495;
}
);
unicode = 121;
},
{
glyphname = z;
lastChange = "2024-01-24 11:00:25 +0000";
layers = (
{
guides = (
{
pos = (199,713);
}
);
layerId = m01;
shapes = (
{
closed = 1;
nodes = (
(-5,123,o),
(-48,-45,o),
(3,-1,cs),
(42,32,o),
(96,46,o),
(151,45,cs),
(211,43,o),
(272,23,o),
(313,-8,cs),
(329,-21,o),
(391,148,o),
(375,160,cs),
(343,186,o),
(290,207,o),
(232,213,cs),
(166,220,o),
(93,207,o),
(35,157,cs)
);
},
{
closed = 1;
nodes = (
(107,736,o),
(42,569,o),
(57,550,cs),
(77,525,o),
(122,507,o),
(174,501,cs),
(244,493,o),
(328,506,o),
(379,552,cs),
(405,575,o),
(460,744,o),
(429,716,cs),
(390,681,o),
(318,667,o),
(252,671,cs),
(195,674,o),
(143,690,o),
(121,718,cs)
);
},
{
closed = 1;
nodes = (
(429,653,o),
(318,622,o),
(295,569,cs),
(271,513,o),
(222,441,o),
(170,367,cs),
(97,265,o),
(19,158,o),
(-7,82,cs),
(-25,26,o),
(88,66,o),
(105,116,cs),
(122,169,o),
(197,267,o),
(270,372,cs),
(323,448,o),
(375,527,o),
(405,597,cs)
);
}
);
width = 438;
}
);
unicode = 122;
},
{
glyphname = zero;
lastChange = "2024-01-24 11:00:25 +0000";
layers = (
{
layerId = m01;
shapes = (
{
closed = 1;
nodes = (
(478,573,o),
(432,729,o),
(310,715,cs),
(177,700,o),
(54,497,o),
(20,309,cs),
(-13,126,o),
(33,-33,o),
(155,-19,cs),
(288,-4,o),
(414,208,o),
(446,392,cs)
);
},
{
closed = 1;
nodes = (
(324,230,o),
(265,177,o),
(213,171,cs),
(144,163,o),
(101,240,o),
(122,355,cs),
(142,468,o),
(201,519,o),
(252,525,cs),
(320,533,o),
(364,459,o),
(344,344,cs)
);
}
);
width = 477;
}
);
unicode = 48;
},
{
glyphname = one;
lastChange = "2024-01-24 11:26:14 +0000";
layers = (
{
layerId = m01;
shapes = (
{
closed = 1;
nodes = (
(279,727,o),
(149,604,o),
(159,585,cs),
(176,554,o),
(177,549,o),
(172,491,cs),
(162,363,o),
(153,235,o),
(143,107,cs),
(138,40,o),
(152,21,o),
(181,1,cs),
(197,-10,o),
(324,117,o),
(307,129,cs),
(284,145,o),
(280,154,o),
(285,215,cs),
(294,343,o),
(303,471,o),
(314,599,cs),
(319,663,o),
(308,674,o),
(289,709,cs)
);
},
{
closed = 1;
nodes = (
(250,710,o),
(155,603,o),
(148,565,cs),
(134,493,o),
(92,414,o),
(42,374,cs),
(-2,338,o),
(84,344,o),
(124,376,cs),
(230,462,o),
(224,575,o),
(242,669,cs)
);
}
);
width = 375;
}
);
unicode = 49;
},
{
glyphname = two;
lastChange = "2024-01-24 11:39:14 +0000";
layers = (
{
layerId = m01;
shapes = (
{
closed = 1;
nodes = (
(-18,97,o),
(36,68,o),
(81,141,cs),
(164,276,o),
(205,297,o),
(335,436,cs),
(440,547,o),
(424,650,o),
(361,695,cs),
(288,748,o),
(151,720,o),
(71,531,cs),
(28,431,o),
(63,361,o),
(109,469,cs),
(144,551,o),
(223,558,o),
(253,524,cs),
(272,502,o),
(272,464,o),
(229,418,cs),
(181,367,o),
(112,306,o),
(27,169,cs)
);
},
{
closed = 1;
nodes = (
(-5,129,o),
(-55,-38,o),
(-16,5,cs),
(7,30,o),
(93,79,o),
(180,76,cs),
(232,74,o),
(284,55,o),
(324,2,cs),
(348,-31,o),
(423,133,o),
(400,162,cs),
(358,218,o),
(305,240,o),
(251,244,cs),
(155,251,o),
(59,199,o),
(26,163,cs)
);
}
);
width = 461;
}
);
unicode = 50;
},
{
glyphname = three;
lastChange = "2024-01-24 11:00:25 +0000";
layers = (
{
layerId = m01;
shapes = (
{
closed = 1;
nodes = (
(412,565,o),
(469,736,o),
(432,711,cs),
(401,691,o),
(322,686,o),
(276,686,cs),
(221,686,o),
(173,697,o),
(140,713,cs),
(109,727,o),
(37,562,o),
(68,547,cs),
(107,529,o),
(159,516,o),
(216,516,cs),
(266,516,o),
(341,517,o),
(382,545,cs)
);
},
{
closed = 1;
nodes = (
(40,249,o),
(99,241,o),
(145,301,cs),
(170,333,o),
(261,350,o),
(312,314,cs),
(348,288,o),
(365,235,o),
(327,142,cs),
(302,81,o),
(414,204,o),
(435,256,cs),
(467,334,o),
(450,403,o),
(404,439,cs),
(338,490,o),
(212,471,o),
(87,309,cs)
);
},
{
closed = 1;
nodes = (
(445,267,o),
(458,375,o),
(418,296,cs),
(365,191,o),
(276,104,o),
(215,129,cs),
(189,140,o),
(169,171,o),
(158,231,cs),
(154,257,o),
(26,131,o),
(30,107,cs),
(40,44,o),
(70,7,o),
(110,-8,cs),
(195,-40,o),
(327,35,o),
(410,198,cs)
);
},
{
closed = 1;
nodes = (
(446,601,o),
(364,616,o),
(291,550,cs),
(259,520,o),
(125,352,o),
(124,351,cs),
(69,283,o),
(183,302,o),
(234,365,cs),
(240,372,o),
(374,536,o),
(375,536,cs)
);
}
);
width = 481;
}
);
unicode = 51;
},
{
glyphname = four;
lastChange = "2024-01-24 11:39:46 +0000";
layers = (
{
layerId = m01;
shapes = (
{
closed = 1;
nodes = (
(48,382,o),
(-9,212,o),
(1,212,cs),
(135,213,o),
(269,213,o),
(404,213,cs),
(416,213,o),
(476,383,o),
(464,383,cs),
(330,382,o),
(196,382,o),
(61,382,cs)
);
},
{
closed = 1;
nodes = (
(51,373,o),
(47,281,o),
(57,292,cs),
(139,381,o),
(220,470,o),
(301,559,cs),
(311,570,o),
(316,663,o),
(305,651,cs),
(223,562,o),
(142,473,o),
(61,384,cs)
);
},
{
closed = 1;
nodes = (
(371,726,o),
(241,603,o),
(251,584,cs),
(268,553,o),
(269,548,o),
(264,490,cs),
(254,362,o),
(245,234,o),
(235,106,cs),
(230,39,o),
(244,20,o),
(273,0,cs),
(289,-11,o),
(416,116,o),
(399,128,cs),
(376,144,o),
(372,153,o),
(377,214,cs),
(386,342,o),
(395,470,o),
(406,598,cs),
(411,662,o),
(400,673,o),
(381,708,cs)
);
}
);
width = 496;
}
);
unicode = 52;
},
{
glyphname = five;
lastChange = "2024-01-24 11:00:25 +0000";
layers = (
{
layerId = m01;
shapes = (
{
closed = 1;
nodes = (
(441,604,o),
(477,759,o),
(433,701,cs),
(412,674,o),
(349,659,o),
(307,659,cs),
(252,659,o),
(190,681,o),
(157,710,cs),
(127,738,o),
(78,576,o),
(78,572,cs),
(69,455,o),
(56,350,o),
(48,240,cs),
(44,194,o),
(137,257,o),
(140,302,cs),
(150,431,o),
(153,564,o),
(162,686,c),
(136,640,o),
(109,594,o),
(83,548,c),
(122,511,o),
(190,489,o),
(247,489,cs),
(301,489,o),
(350,486,o),
(401,553,cs)
);
},
{
closed = 1;
nodes = (
(19,205,o),
(83,203,o),
(127,263,cs),
(157,304,o),
(261,337,o),
(320,305,cs),
(359,283,o),
(378,232,o),
(340,133,cs),
(317,76,o),
(427,194,o),
(448,249,cs),
(482,336,o),
(459,404,o),
(406,433,cs),
(329,475,o),
(189,438,o),
(63,265,cs)
);
},
{
closed = 1;
nodes = (
(455,267,o),
(468,375,o),
(428,296,cs),
(375,193,o),
(288,107,o),
(228,128,cs),
(201,138,o),
(179,170,o),
(168,231,cs),
(164,257,o),
(36,131,o),
(40,107,cs),
(50,46,o),
(78,9,o),
(116,-7,cs),
(201,-42,o),
(335,33,o),
(420,198,cs)
);
}
);
width = 504;
}
);
unicode = 53;
},
{
glyphname = six;
lastChange = "2024-01-24 11:00:25 +0000";
layers = (
{
layerId = m01;
shapes = (
{
closed = 1;
nodes = (
(60.378,88.595,o),
(118.18,174.342,o),
(122.746,221.278,cs),
(128,275,o),
(227,316,o),
(279,273,cs),
(307,250,o),
(322,202,o),
(300.526,117.61,cs),
(289.003,71.916,o),
(393.113,207.304,o),
(403.474,248.39,cs),
(423,326,o),
(395,387,o),
(347,417,cs),
(256,476,o),
(92,418,o),
(65.254,138.722,cs)
);
},
{
closed = 1;
nodes = (
(423.885,301.403,o),
(340.062,243.754,o),
(315.578,176.519,cs),
(295.258,120.72,o),
(230.837,79.54,o),
(173.104,134.271,cs),
(43.655,256.992,o),
(278.548,560.414,o),
(320.844,634.187,cs),
(353.57,691.267,o),
(258.748,658.916,o),
(227.156,603.813,cs),
(207,568,o),
(136,466,o),
(80,354,cs),
(18,227,o),
(-25,87,o),
(48.896,17.729,cs),
(92,-23,o),
(204,-45,o),
(302,62,cs),
(337,100,o),
(371,155,o),
(398.422,231.481,cs)
);
},
{
closed = 1;
nodes = (
(360.806,605.289,o),
(397.09,759.549,o),
(352.535,701.747,cs),
(340,686,o),
(307,679,o),
(273,682,cs),
(245,684,o),
(218,694,o),
(200.475,710.33,cs),
(174.103,736.042,o),
(100,572.557,o),
(125.525,547.67,cs),
(145,529,o),
(178,514,o),
(213,511,cs),
(252,508,o),
(294,519,o),
(321.465,554.253,cs)
);
}
);
width = 435;
}
);
unicode = 54;
},
{
glyphname = seven;
lastChange = "2024-01-24 11:00:25 +0000";
layers = (
{
layerId = m01;
shapes = (
{
closed = 1;
nodes = (
(473,754,o),
(357,707,o),
(316,625,cs),
(297,588,o),
(67,40,o),
(66,38,cs),
(31,-45,o),
(154,18,o),
(186,94,cs),
(193,111,o),
(415,639,o),
(430,669,cs)
);
},
{
closed = 1;
nodes = (
(371,616,o),
(437,746,o),
(373,691,cs),
(354,674,o),
(293,660,o),
(232,662,cs),
(181,664,o),
(130,677,o),
(101,710,cs),
(76,738,o),
(0,577,o),
(25,548,cs),
(53,517,o),
(91,501,o),
(133,499,cs),
(194,496,o),
(262,521,o),
(315,567,cs)
);
}
);
width = 399;
}
);
unicode = 55;
},
{
glyphname = eight;
lastChange = "2024-01-24 11:00:25 +0000";
layers = (
{
layerId = m01;
shapes = (
{
closed = 1;
nodes = (
(188,355,o),
(266,373,o),
(335,466,cs),
(414,575,o),
(423,648,o),
(397,685,cs),
(363,732,o),
(274,721,o),
(195,654,cs),
(125,595,o),
(90,522,o),
(167,588,cs),
(190,607,o),
(233,590,o),
(257,557,cs),
(278,529,o),
(285,490,o),
(257,452,cs)
);
},
{
closed = 1;
nodes = (
(205,664,o),
(80,552,o),
(62,510,cs),
(22,417,o),
(92,372,o),
(154,311,cs),
(161,304,o),
(283,426,o),
(276,433,cs),
(214,492,o),
(156,547,o),
(188,624,cs)
);
},
{
closed = 1;
nodes = (
(254,382,o),
(154,352,o),
(82,271,cs),
(9,189,o),
(-4,104,o),
(22,49,cs),
(53,-18,o),
(140,-41,o),
(243,39,cs),
(310,91,o),
(362,177,o),
(289,121,cs),
(240,83,o),
(198,106,o),
(175,148,cs),
(150,194,o),
(147,261,o),
(180,299,cs)
);
},
{
closed = 1;
nodes = (
(247,40,o),
(373,153,o),
(395,195,cs),
(428,261,o),
(418,303,o),
(388,338,cs),
(362,369,o),
(322,396,o),
(285,430,cs),
(277,436,o),
(156,315,o),
(163,308,cs),
(204,271,o),
(248,238,o),
(270,199,cs),
(289,166,o),
(293,131,o),
(271,87,cs)
);
}
);
width = 446;
}
);
unicode = 56;
},
{
glyphname = nine;
lastChange = "2024-01-24 11:00:25 +0000";
layers = (
{
layerId = m01;
shapes = (
{
closed = 1;
nodes = (
(376,611,o),
(318,523,o),
(314,478,cs),
(309,418,o),
(230,381,o),
(180,414,cs),
(147,436,o),
(127,488,o),
(150,585,cs),
(160,627,o),
(57,497,o),
(46,453,cs),
(28,376,o),
(56,312,o),
(102,280,cs),
(190,218,o),
(346,270,o),
(372,560,cs)
);
},
{
closed = 1;
nodes = (
(25,396,o),
(110,458,o),
(133,522,cs),
(154,578,o),
(220,621,o),
(276,565,cs),
(396,442,o),
(170,137,o),
(128,65,cs),
(95,7,o),
(192,42,o),
(222,95,cs),
(266,173,o),
(530,550,o),
(400,681,cs),
(364,718,o),
(275,739,o),
(187,674,cs),
(138,637,o),
(89,572,o),
(51,468,cs)
);
},
{
closed = 1;
nodes = (
(87,111,o),
(40,-54,o),
(83,-7,cs),
(99,11,o),
(135,17,o),
(170,14,cs),
(196,11,o),
(222,2,o),
(239,-12,cs),
(267,-35,o),
(339,130,o),
(313,152,cs),
(294,168,o),
(263,179,o),
(230,182,cs),
(189,186,o),
(147,177,o),
(121,149,cs)
);
}
);
width = 445;
}
);
unicode = 57;
},
{
glyphname = "period-han";
lastChange = "2024-01-24 11:00:25 +0000";
layers = (
{
layerId = m01;
shapes = (
{
closed = 1;
nodes = (
(210,213,o),
(149,220,o),
(80,133,cs),
(-9,22,o),
(-14,-63,o),
(17,-109,cs),
(45,-150,o),
(102,-161,o),
(153,-131,cs),
(203,-102,o),
(278,49,o),
(219,15,cs),
(173,-11,o),
(149,4,o),
(137,30,cs),
(123,62,o),
(127,109,o),
(136,121,cs)
);
},
{
closed = 1;
nodes = (
(136,-62,o),
(128,-159,o),
(197,-83,cs),
(342,75,o),
(351,169,o),
(313,212,cs),
(280,250,o),
(211,247,o),
(164,214,cs),
(104,172,o),
(29,43,o),
(100,94,cs),
(148,128,o),
(174,110,o),
(187,83,cs),
(201,52,o),
(201,9,o),
(199,7,cs)
);
}
);
width = 332;
}
);
unicode = 12290;
},
{
glyphname = period;
lastChange = "2024-01-24 11:00:25 +0000";
layers = (
{
layerId = m01;
shapes = (
{
closed = 1;
nodes = (
(42,165,o),
(-17,-4,o),
(5,1,cs),
(8,2,o),
(100,0,o),
(107,1,cs),
(127,5,o),
(188,175,o),
(165,171,cs),
(160,170,o),
(68,172,o),
(63,171,cs)
);
}
);
width = 170;
}
);
unicode = 46;
},
{
glyphname = comma;
lastChange = "2024-01-24 11:00:25 +0000";
layers = (
{
layerId = m01;
shapes = (
{
closed = 1;
nodes = (
(44,166,o),
(-17,-4,o),
(4,-4,cs),
(24,-4,o),
(37,-11,o),
(46,-23,cs),
(60,-41,o),
(62,-70,o),
(55,-96,cs),
(42,-153,o),
(124,-76,o),
(137,-22,cs),
(148,25,o),
(141,86,o),
(120,125,cs),
(107,149,o),
(88,166,o),
(64,166,cs)
);
}
);
width = 142;
}
);
unicode = 44;
},
{
glyphname = colon;
lastChange = "2024-01-24 11:00:25 +0000";
layers = (
{
layerId = m01;
shapes = (
{
closed = 1;
nodes = (
(100,469,o),
(40,298,o),
(66,314,cs),
(80,322,o),
(137,304,o),
(167,313,cs),
(188,320,o),
(249,490,o),
(225,483,cs),
(197,474,o),
(142,494,o),
(122,482,cs)
);
},
{
closed = 1;
nodes = (
(90,150,o),
(30,-21,o),
(56,-5,cs),
(70,3,o),
(127,-15,o),
(157,-6,cs),
(178,1,o),
(239,171,o),
(215,164,cs),
(187,155,o),
(132,175,o),
(112,163,cs)
);
}
);
width = 281;
}
);
unicode = 58;
},
{
glyphname = semicolon;
lastChange = "2024-01-24 11:00:25 +0000";
layers = (
{
layerId = m01;
shapes = (
{
closed = 1;
nodes = (
(90,469,o),
(30,298,o),
(56,314,cs),
(70,322,o),
(127,304,o),
(157,313,cs),
(178,320,o),
(239,490,o),
(215,483,cs),
(187,474,o),
(132,494,o),
(112,482,cs)
);
},
{
closed = 1;
nodes = (
(101,166,o),
(40,-4,o),
(61,-4,cs),
(80,-4,o),
(93,-11,o),
(102,-21,cs),
(117,-40,o),
(119,-70,o),
(112,-96,cs),
(99,-153,o),
(181,-76,o),
(194,-22,cs),
(204,24,o),
(199,81,o),
(179,121,cs),
(166,147,o),
(146,166,o),
(121,166,cs)
);
}
);
width = 271;
}
);
unicode = 59;
},
{
glyphname = ellipsis;
lastChange = "2024-01-24 11:00:25 +0000";
layers = (
{
layerId = m01;
shapes = (
{
closed = 1;
nodes = (
(47,165,o),
(-12,-4,o),
(10,1,cs),
(13,2,o),
(105,0,o),
(112,1,cs),
(132,5,o),
(193,175,o),
(170,171,cs),
(165,170,o),
(73,172,o),
(68,171,cs)
);
},
{
closed = 1;
nodes = (
(470,165,o),
(411,-4,o),
(433,1,cs),
(436,2,o),
(528,0,o),
(535,1,cs),
(555,5,o),
(616,175,o),
(593,171,cs),
(588,170,o),
(496,172,o),
(491,171,cs)
);
},
{
closed = 1;
nodes = (
(258,165,o),
(199,-4,o),
(221,1,cs),
(224,2,o),
(316,0,o),
(323,1,cs),
(343,5,o),
(404,175,o),
(381,171,cs),
(376,170,o),
(284,172,o),
(279,171,cs)
);
}
);
width = 608;
}
);
unicode = 8230;
},
{
glyphname = exclam;
lastChange = "2024-01-24 11:00:25 +0000";
layers = (
{
layerId = m01;
shapes = (
{
closed = 1;
nodes = (
(204,757,o),
(72,629,o),
(72,601,cs),
(72,592,o),
(57,233,o),
(57,227,cs),
(55,197,o),
(188,325,o),
(189,353,cs),
(189,353,o),
(204,721,o),
(204,727,cs)
);
},
{
closed = 1;
nodes = (
(46,136,o),
(39,-41,o),
(72,-8,cs),
(74,-7,o),
(166,70,o),
(168,71,cs),
(197,86,o),
(209,265,o),
(176,249,cs),
(171,246,o),
(77,167,o),
(74,164,cs)
);
}
);
width = 254;
}
);
unicode = 33;
},
{
glyphname = question;
lastChange = "2024-01-24 11:00:25 +0000";
layers = (
{
layerId = m01;
shapes = (
{
closed = 1;
nodes = (
(196,365,o),
(259,362,o),
(334,457,cs),
(433,584,o),
(441,662,o),
(408,696,cs),
(370,736,o),
(276,718,o),
(201,654,cs),
(131,595,o),
(96,522,o),
(173,588,cs),
(201,611,o),
(249,594,o),
(274,560,cs),
(293,533,o),
(298,497,o),
(270,461,cs)
);
},
{
closed = 1;
nodes = (
(190,655,o),
(62,533,o),
(53,502,cs),
(40,454,o),
(69,416,o),
(85,399,cs),
(92,392,o),
(214,514,o),
(207,521,cs),
(189,538,o),
(170,580,o),
(181,621,cs)
);
},
{
closed = 1;
nodes = (
(309,504,o),
(177,376,o),
(177,348,cs),
(177,347,o),
(162,221,o),
(162,219,cs),
(158,185,o),
(291,313,o),
(294,343,cs),
(294,343,o),
(309,471,o),
(309,474,cs)
);
},
{
closed = 1;
nodes = (
(287,258,o),
(153,135,o),
(153,94,cs),
(153,93,o),
(153,10,o),
(153,10,cs),
(153,-34,o),
(287,92,o),
(287,130,cs),
(287,130,o),
(287,213,o),
(287,214,cs)
);
}
);
width = 476;
}
);
unicode = 63;
},
{
glyphname = periodcentered;
lastChange = "2024-01-24 11:00:25 +0000";
layers = (
{
layerId = m01;
shapes = (
{
closed = 1;
nodes = (
(42,375,o),
(-17,206,o),
(5,211,cs),
(8,212,o),
(100,210,o),
(107,211,cs),
(127,215,o),
(188,385,o),
(165,381,cs),
(160,380,o),
(68,382,o),
(63,381,cs)
);
}
);
width = 170;
}
);
unicode = 183;
},
{
glyphname = bullet;
lastChange = "2024-01-24 12:44:20 +0000";
layers = (
{
layerId = m01;
shapes = (
{
closed = 1;
nodes = (
(185,387,o),
(125,394,o),
(56,307,cs),
(-14,219,o),
(-8,168,o),
(18,147,cs),
(36,133,o),
(65,133,o),
(86,145,cs),
(136,173,o),
(211,325,o),
(151,291,cs),
(144,286,o),
(111,293,o),
(112,295,cs)
);
},
{
closed = 1;
nodes = (
(60,201,o),
(55,106,o),
(124,183,cs),
(222,290,o),
(231,349,o),
(210,374,cs),
(193,395,o),
(153,392,o),
(127,374,cs),
(68,333,o),
(-9,203,o),
(61,252,cs),
(62,253,o),
(126,273,o),
(124,271,cs)
);
}
);
width = 219;
}
);
unicode = 8226;
},
{
glyphname = asterisk;
lastChange = "2024-01-24 12:44:33 +0000";
layers = (
{
layerId = m01;
shapes = (
{
closed = 1;
nodes = (
(465,625,o),
(475,722,o),
(386,654,cs),
(352,628,o),
(70,379,o),
(68,377,cs),
(-12,307,o),
(3,229,o),
(90,305,cs),
(101,315,o),
(373,554,o),
(386,564,cs)
);
},
{
closed = 1;
nodes = (
(351,259,o),
(493,354,o),
(460,383,cs),
(354,477,o),
(249,571,o),
(143,665,cs),
(114,691,o),
(-28,596,o),
(5,567,cs),
(111,473,o),
(216,379,o),
(322,285,cs)
);
},
{
closed = 1;
nodes = (
(317,763,o),
(221,687,o),
(221,647,cs),
(221,640,o),
(157,246,o),
(156,240,cs),
(148,190,o),
(244,254,o),
(252,302,cs),
(252,304,o),
(317,706,o),
(317,719,cs)
);
}
);
width = 465;
}
);
unicode = 42;
},
{
glyphname = dblverticalbar;
lastChange = "2024-01-24 11:14:51 +0000";
layers = (
{
layerId = m01;
shapes = (
{
closed = 1;
nodes = (
(369,756,o),
(280,695,o),
(270,649,cs),
(267,633,o),
(248,483,o),
(229,330,cs),
(208,161,o),
(187,-12,o),
(187,-13,cs),
(181,-59,o),
(272,7,o),
(277,51,cs),
(279,64,o),
(295,202,o),
(313,349,cs),
(333,510,o),
(354,681,o),
(360,707,cs)
);
},
{
closed = 1;
nodes = (
(232,756,o),
(143,695,o),
(133,649,cs),
(130,632,o),
(109,468,o),
(89,308,cs),
(69,146,o),
(50,-12,o),
(50,-13,cs),
(44,-59,o),
(135,7,o),
(140,51,cs),
(142,65,o),
(160,222,o),
(180,379,cs),
(198,531,o),
(218,682,o),
(223,707,cs)
);
}
);
width = 411;
}
);
unicode = 8214;
},
{
glyphname = dittomark;
lastChange = "2024-01-24 12:44:39 +0000";
layers = (
{
layerId = m01;
shapes = (
{
closed = 1;
nodes = (
(205,510,o),
(188,520,o),
(160,510,cs),
(131,500,o),
(91,467,o),
(70,425,cs),
(61,408,o),
(7,279,o),
(6,277,cs),
(-12,235,o),
(11,230,o),
(43,247,cs),
(73,262,o),
(110,296,o),
(126,333,cs),
(129,339,o),
(184,468,o),
(184,469,cs)
);
},
{
closed = 1;
nodes = (
(361,513,o),
(340,522,o),
(309,507,cs),
(280,495,o),
(244,464,o),
(225,425,cs),
(216,408,o),
(162,279,o),
(161,277,cs),
(143,235,o),
(166,230,o),
(197,246,cs),
(227,261,o),
(265,296,o),
(281,333,cs),
(284,339,o),
(339,468,o),
(339,469,cs)
);
}
);
width = 348;
}
);
unicode = 12291;
},
{
glyphname = numbersign;
lastChange = "2024-01-24 11:15:13 +0000";
layers = (
{
layerId = m01;
shapes = (
{
closed = 1;
nodes = (
(422,666,o),
(306,619,o),
(265,537,cs),
(256,520,o),
(201,390,o),
(144,257,cs),
(81,106,o),
(15,-49,o),
(15,-50,cs),
(-20,-133,o),
(103,-70,o),
(135,6,cs),
(138,14,o),
(188,132,o),
(242,259,cs),
(304,406,o),
(371,565,o),
(379,581,cs)
);
},
{
closed = 1;
nodes = (
(711,666,o),
(595,619,o),
(554,537,cs),
(545,520,o),
(493,397,o),
(438,269,cs),
(373,114,o),
(304,-49,o),
(304,-50,cs),
(269,-133,o),
(392,-70,o),
(424,6,cs),
(427,14,o),
(480,139,o),
(535,270,cs),
(596,414,o),
(660,565,o),
(668,581,cs)
);
},
{
closed = 1;
nodes = (
(148,475,o),
(87,305,o),
(108,305,cs),
(193,305,o),
(278,306,o),
(363,306,cs),
(450,306,o),
(538,306,o),
(626,306,cs),
(645,306,o),
(707,476,o),
(686,476,cs),
(590,476,o),
(493,475,o),
(397,475,cs),
(321,475,o),
(244,475,o),
(168,475,cs)
);
},
{
closed = 1;
nodes = (
(44,220,o),
(-17,50,o),
(4,50,cs),
(86,50,o),
(169,51,o),
(251,51,cs),
(342,51,o),
(432,51,o),
(522,51,cs),
(541,51,o),
(603,221,o),
(582,221,cs),
(496,221,o),
(411,220,o),
(325,220,cs),
(238,220,o),
(151,220,o),
(64,220,cs)
);
}
);
width = 690;
}
);
unicode = 35;
},
{
glyphname = slash;
lastChange = "2024-01-24 11:10:44 +0000";
layers = (
{
layerId = m01;
shapes = (
{
closed = 1;
nodes = (
(445,785,o),
(329,738,o),
(288,656,cs),
(279,639,o),
(227,516,o),
(170,380,cs),
(93,198,o),
(7,-8,o),
(6,-9,cs),
(-29,-92,o),
(94,-29,o),
(126,47,cs),
(132,62,o),
(200,225,o),
(267,385,cs),
(330,533,o),
(391,678,o),
(402,700,cs)
);
}
);
width = 411;
}
);
unicode = 47;
},
{
glyphname = backslash;
lastChange = "2024-01-24 11:11:07 +0000";
layers = (
{
layerId = m01;
shapes = (
{
closed = 1;
nodes = (
(301,9,o),
(343,-28,o),
(375,-42,cs),
(403,-55,o),
(422,-49,o),
(405.463,-10.111,cs),
(398,8,o),
(323,187,o),
(252,355,cs),
(191,500,o),
(133,637,o),
(122.979,656.474,cs),
(103,697,o),
(61,731,o),
(31,741,cs),
(5,751,o),
(-12,741,o),
(9.021,699.526,cs),
(14,690,o),
(91,508,o),
(162,339,cs),
(223,195,o),
(280,60,o),
(284.537,48.111,cs)
);
}
);
width = 411;
}
);
unicode = 92;
},
{
glyphname = hyphen;
lastChange = "2024-01-24 11:30:00 +0000";
layers = (
{
layerId = m01;
shapes = (
{
closed = 1;
nodes = (
(93,349,o),
(33,179,o),
(54,179,cs),
(155,180,o),
(256,180,o),
(357,180,cs),
(377,180,o),
(439,350,o),
(417,350,cs),
(316,349,o),
(215,349,o),
(114,349,cs)
);
}
);
width = 472;
}
);
unicode = 45;
},
{
glyphname = endash;
lastChange = "2024-01-24 11:00:25 +0000";
layers = (
{
layerId = m01;
shapes = (
{
closed = 1;
nodes = (
(94,384,o),
(33,214,o),
(54,214,cs),
(233,214,o),
(411,213,o),
(590,212,cs),
(610,212,o),
(671,382,o),
(650,382,cs),
(471,382,o),
(293,383,o),
(114,384,cs)
);
}
);
width = 704;
}
);
unicode = 8211;
},
{
glyphname = emdash;
lastChange = "2024-01-24 11:00:25 +0000";
layers = (
{
layerId = m01;
shapes = (
{
closed = 1;
nodes = (
(94,384,o),
(33,214,o),
(54,214,cs),
(260,214,o),
(465,213,o),
(671,212,cs),
(691,212,o),
(752,382,o),
(731,382,cs),
(525,382,o),
(320,383,o),
(114,384,cs)
);
}
);
width = 785;
}
);
unicode = 8212;
},
{
glyphname = underscore;
lastChange = "2024-01-24 11:00:25 +0000";
layers = (
{
layerId = m01;
shapes = (
{
closed = 1;
nodes = (
(94,-21,o),
(33,-191,o),
(54,-191,cs),
(233,-191,o),
(411,-192,o),
(590,-193,cs),
(610,-193,o),
(671,-23,o),
(650,-23,cs),
(471,-23,o),
(293,-22,o),
(114,-21,cs)
);
}
);
width = 704;
}
);
unicode = 95;
},
{
glyphname = wavedash;
lastChange = "2024-01-24 11:00:25 +0000";
layers = (
{
layerId = m01;
shapes = (
{
closed = 1;
nodes = (
(681,183,o),
(702,228,o),
(716,270,cs),
(730,313,o),
(737,353,o),
(721,346,cs),
(602,299,o),
(538,286,o),
(419,348,cs),
(330,395,o),
(224,397,o),
(111,327,cs),
(99,320,o),
(82,285,o),
(69,249,cs),
(51,200,o),
(40,148,o),
(61,161,cs),
(166,225,o),
(271,225,o),
(357,180,cs),
(477,116,o),
(546,129,o),
(667,178,cs)
);
}
);
width = 780;
}
);
unicode = 12316;
},
{
glyphname = parenleft;
lastChange = "2024-01-24 11:00:25 +0000";
layers = (
{
layerId = m01;
shapes = (
{
closed = 1;
nodes = (
(360,890,o),
(320,879,o),
(276,856,cs),
(243,838,o),
(207,812,o),
(195,790,cs),
(127,670,o),
(78,501,o),
(59,332,cs),
(35,123,o),
(58,-86,o),
(149,-205,cs),
(159,-218,o),
(197,-190,o),
(229,-157,cs),
(260,-126,o),
(286,-90,o),
(277,-79,cs),
(202,19,o),
(185,199,o),
(205,384,cs),
(223,560,o),
(275,740,o),
(343,860,cs)
);
}
);
width = 397;
}
);
unicode = 40;
},
{
glyphname = parenright;
lastChange = "2024-01-24 11:00:25 +0000";
layers = (
{
layerId = m01;
shapes = (
{
closed = 1;
nodes = (
(35,-209,o),
(85,-193,o),
(133,-165,cs),
(163,-148,o),
(192,-125,o),
(202,-107,cs),
(274,20,o),
(325,200,o),
(341,378,cs),
(360,578,o),
(335,774,o),
(248,888,cs),
(241,898,o),
(215,883,o),
(189,860,cs),
(150,827,o),
(109,776,o),
(120,762,cs),
(178,685,o),
(202,559,o),
(200,420,cs),
(197,211,o),
(138,-29,o),
(54,-177,cs)
);
}
);
width = 397;
}
);
unicode = 41;
},
{
glyphname = bracketleft;
lastChange = "2024-01-24 12:48:01 +0000";
layers = (
{
layerId = m01;
shapes = (
{
closed = 1;
nodes = (
(326,932,o),
(196,843,o),
(182,777,cs),
(178,756,o),
(153,575,o),
(126,377,cs),
(90,117,o),
(51,-174,o),
(51,-175,cs),
(42,-243,o),
(172,-150,o),
(181,-85,cs),
(184,-65,o),
(214,162,o),
(244,389,cs),
(274,607,o),
(304,825,o),
(312,861,cs)
);
},
{
closed = 1;
nodes = (
(218,890,o),
(158,720,o),
(179,720,cs),
(262,721,o),
(344,721,o),
(426,721,cs),
(446,721,o),
(508,891,o),
(486,891,cs),
(403,890,o),
(321,890,o),
(239,890,cs)
);
},
{
closed = 1;
nodes = (
(100,-29,o),
(40,-199,o),
(61,-199,cs),
(141,-198,o),
(220,-198,o),
(299,-198,cs),
(319,-198,o),
(381,-28,o),
(359,-28,cs),
(279,-29,o),
(200,-29,o),
(121,-29,cs)
);
}
);
width = 501;
}
);
unicode = 91;
},
{
glyphname = bracketright;
lastChange = "2024-01-24 12:48:09 +0000";
layers = (
{
layerId = m01;
shapes = (
{
closed = 1;
nodes = (
(171.231,889.641,o),
(110.981,720.19,o),
(132.276,720.276,cs),
(214.61,720.609,o),
(296.943,720.942,o),
(379.276,721.276,cs),
(399.331,721.357,o),
(460.896,890.814,o),
(438.724,890.724,cs),
(356.39,890.391,o),
(274.057,890.058,o),
(191.724,889.724,cs)
);
},
{
closed = 1;
nodes = (
(53.231,-26.362,o),
(-7.019,-195.814,o),
(14.276,-195.724,cs),
(93.61,-195.391,o),
(172.943,-195.058,o),
(252.276,-194.724,cs),
(272.33,-194.64,o),
(333.896,-25.183,o),
(311.724,-25.276,cs),
(232.39,-25.609,o),
(153.057,-25.942,o),
(73.724,-26.276,cs)
);
},
{
closed = 1;
nodes = (
(456.077,932.172,o),
(326.025,843.214,o),
(312.488,777.033,cs),
(308,756,o),
(284,582,o),
(257,388,cs),
(222,128,o),
(182,-167,o),
(182.019,-167.65,cs),
(172.84,-235.765,o),
(303.32,-142.617,o),
(311.981,-78.35,cs),
(314,-60,o),
(339,124,o),
(366,326,cs),
(398,562,o),
(433,821,o),
(441.512,860.967,cs)
);
}
);
width = 494;
}
);
unicode = 93;
},
{
glyphname = anglebracketleft;
lastChange = "2024-01-24 11:00:25 +0000";
layers = (
{
layerId = m01;
shapes = (
{
closed = 1;
nodes = (
(468,848,o),
(338,806,o),
(305,747,cs),
(230,616,o),
(156,486,o),
(82,355,cs),
(45,290,o),
(176,337,o),
(208,393,cs),
(283,524,o),
(357,654,o),
(431,785,cs)
);
},
{
closed = 1;
nodes = (
(201,456,o),
(57,365,o),
(77,329,cs),
(152,199,o),
(226,69,o),
(300,-62,cs),
(320,-96,o),
(464,-6,o),
(444,30,cs),
(369,160,o),
(295,291,o),
(221,421,cs)
);
}
);
width = 520;
}
);
unicode = 12296;
},
{
glyphname = anglebracketright;
lastChange = "2024-01-24 11:00:25 +0000";
layers = (
{
layerId = m01;
shapes = (
{
closed = 1;
nodes = (
(52,-103,o),
(183,-56,o),
(215,0,cs),
(290,131,o),
(364,261,o),
(438,392,cs),
(475,455,o),
(345,413,o),
(312,354,cs),
(237,223,o),
(163,93,o),
(89,-38,cs)
);
},
{
closed = 1;
nodes = (
(319,292,o),
(463,382,o),
(443,418,cs),
(368,548,o),
(294,679,o),
(220,809,cs),
(200,844,o),
(56,753,o),
(76,717,cs),
(151,587,o),
(225,457,o),
(299,326,cs)
);
}
);
width = 520;
}
);
unicode = 12297;
},
{
glyphname = cornerbracketleft;
lastChange = "2024-01-24 12:51:00 +0000";
layers = (
{
layerId = m01;
shapes = (
{
closed = 1;
nodes = (
(283,847,o),
(153,758,o),
(139,692,cs),
(134,663,o),
(121,573,o),
(108,479,cs),
(92,359,o),
(76,234,o),
(74,221,cs),
(65,155,o),
(196,249,o),
(204,313,cs),
(204,313,o),
(216,405,o),
(230,507,cs),
(246,624,o),
(264,755,o),
(269,776,cs)
);
},
{
closed = 1;
nodes = (
(175,805,o),
(115,635,o),
(136,635,cs),
(219,636,o),
(301,636,o),
(383,636,cs),
(403,636,o),
(465,806,o),
(443,806,cs),
(360,805,o),
(278,805,o),
(196,805,cs)
);
}
);
width = 523;
}
);
unicode = 12300;
},
{
glyphname = cornerbracketright;
lastChange = "2024-01-24 12:42:58 +0000";
layers = (
{
layerId = m01;
shapes = (
{
closed = 1;
nodes = (
(164,-135,o),
(295,-41,o),
(308,22,cs),
(314,55,o),
(330,170,o),
(345,278,cs),
(359,383,o),
(372,482,o),
(373,493,cs),
(382,560,o),
(251,462,o),
(243,401,cs),
(243,401,o),
(232,321,o),
(220,228,cs),
(203,106,o),
(183,-39,o),
(178,-62,cs)
);
},
{
closed = 1;
nodes = (
(271,-91,o),
(333,79,o),
(311,79,cs),
(228,78,o),
(146,78,o),
(64,78,cs),
(43,78,o),
(-17,-92,o),
(4,-92,cs),
(87,-91,o),
(169,-91,o),
(251,-91,cs)
);
}
);
width = 373;
}
);
unicode = 12301;
},
{
glyphname = quotesinglbase;
lastChange = "2024-01-24 12:41:41 +0000";
layers = (
{
layerId = m01;
shapes = (
{
closed = 1;
nodes = (
(-4,-144,o),
(33,-133,o),
(67,-114,cs),
(94,-98,o),
(120,-78,o),
(122,-65,cs),
(122,-64,o),
(171,120,o),
(173,130,cs),
(178,158,o),
(145,156,o),
(109,141,cs),
(69,124,o),
(25,91,o),
(19,64,cs),
(19,64,o),
(12,-54,o),
(0,-125,cs)
);
}
);
width = 174;
}
);
unicode = 8218;
},
{
glyphname = quotedblbase;
lastChange = "2024-01-24 12:41:49 +0000";
layers = (
{
layerId = m01;
shapes = (
{
closed = 1;
nodes = (
(170,-146,o),
(213,-131,o),
(249,-109,cs),
(273,-95,o),
(294,-77,o),
(295,-65,cs),
(295,-64,o),
(344,121,o),
(346,130,cs),
(351,160,o),
(313,156,o),
(274,137,cs),
(236,119,o),
(197,89,o),
(192,64,cs),
(192,64,o),
(191,-6,o),
(173,-125,cs)
);
},
{
closed = 1;
nodes = (
(-3,-144,o),
(32,-134,o),
(65,-116,cs),
(93,-100,o),
(120,-79,o),
(122,-65,cs),
(122,-64,o),
(171,121,o),
(173,130,cs),
(178,158,o),
(145,156,o),
(108,140,cs),
(69,123,o),
(25,91,o),
(19,64,cs),
(19,64,o),
(15,-21,o),
(0,-125,cs)
);
}
);
width = 346;
}
);
unicode = 8222;
},
{
glyphname = quotedblleft;
lastChange = "2024-01-24 12:34:14 +0000";
layers = (
{
layerId = m01;
shapes = (
{
closed = 1;
nodes = (
(173,723,o),
(142,714,o),
(112,697,cs),
(81,681,o),
(51,657,o),
(51,643,cs),
(51,642,o),
(3,459,o),
(1,450,cs),
(-7,419,o),
(35,425,o),
(76,445,cs),
(112,462,o),
(148,490,o),
(153,516,cs),
(153,516,o),
(173,588,o),
(173,707,cs)
);
},
{
closed = 1;
nodes = (
(346,723,o),
(314,713,o),
(283,696,cs),
(253,680,o),
(224,657,o),
(224,643,cs),
(224,642,o),
(176,459,o),
(174,450,cs),
(166,418,o),
(213,426,o),
(257,449,cs),
(290,466,o),
(321,492,o),
(326,516,cs),
(326,516,o),
(346,588,o),
(346,707,cs)
);
}
);
width = 346;
}
);
unicode = 8220;
},
{
glyphname = quotedblright;
lastChange = "2024-01-24 12:34:22 +0000";
layers = (
{
layerId = m01;
shapes = (
{
closed = 1;
nodes = (
(173,434,o),
(208,446,o),
(241,464,cs),
(269,481,o),
(295,502,o),
(295,515,cs),
(295,516,o),
(343,699,o),
(345,708,cs),
(353,740,o),
(308,733,o),
(265,710,cs),
(231,693,o),
(198,666,o),
(193,642,cs),
(193,642,o),
(173,570,o),
(173,451,cs)
);
},
{
closed = 1;
nodes = (
(0,436,o),
(28,444,o),
(58,459,cs),
(90,475,o),
(122,500,o),
(122,515,cs),
(122,516,o),
(170,699,o),
(172,708,cs),
(180,741,o),
(135,733,o),
(91,710,cs),
(58,692,o),
(25,666,o),
(20,642,cs),
(20,642,o),
(0,570,o),
(0,451,cs)
);
}
);
width = 346;
}
);
unicode = 8221;
},
{
glyphname = quoteleft;
lastChange = "2024-01-24 12:38:22 +0000";
layers = (
{
layerId = m01;
shapes = (
{
closed = 1;
nodes = (
(173,723,o),
(140,713,o),
(108,695,cs),
(79,679,o),
(51,657,o),
(51,643,cs),
(51,642,o),
(3,459,o),
(1,450,cs),
(-7,416,o),
(45,426,o),
(91,453,cs),
(121,470,o),
(148,494,o),
(153,516,cs),
(153,516,o),
(173,588,o),
(173,707,cs)
);
}
);
width = 173;
}
);
unicode = 8216;
},
{
glyphname = quoteright;
lastChange = "2024-01-24 12:38:31 +0000";
layers = (
{
layerId = m01;
shapes = (
{
closed = 1;
nodes = (
(0,435,o),
(34,445,o),
(66,463,cs),
(95,479,o),
(122,501,o),
(122,515,cs),
(122,516,o),
(170,699,o),
(172,708,cs),
(179,735,o),
(148,734,o),
(112,719,cs),
(72,703,o),
(26,670,o),
(20,642,cs),
(20,642,o),
(0,570,o),
(0,451,cs)
);
}
);
width = 173;
}
);
unicode = 8217;
},
{
glyphname = guillemetleft;
lastChange = "2024-01-24 11:00:25 +0000";
layers = (
{
layerId = m01;
shapes = (
{
closed = 1;
nodes = (
(383,479,o),
(321,512,o),
(241,449,cs),
(173,396,o),
(106,343,o),
(39,291,cs),
(-41,228,o),
(22,198,o),
(101,259,cs),
(169,312,o),
(236,365,o),
(303,417,cs)
);
},
{
closed = 1;
nodes = (
(128,357,o),
(-16,267,o),
(1,230,cs),
(33,161,o),
(64,92,o),
(96,23,cs),
(113,-14,o),
(257,75,o),
(240,113,cs),
(208,182,o),
(177,251,o),
(145,320,cs)
);
},
{
closed = 1;
nodes = (
(632,479,o),
(570,512,o),
(490,449,cs),
(422,396,o),
(355,343,o),
(288,291,cs),
(208,228,o),
(271,198,o),
(350,259,cs),
(418,312,o),
(485,365,o),
(552,417,cs)
);
},
{
closed = 1;
nodes = (
(377,357,o),
(233,267,o),
(250,230,cs),
(282,161,o),
(313,92,o),
(345,23,cs),
(362,-14,o),
(506,75,o),
(489,113,cs),
(457,182,o),
(426,251,o),
(394,320,cs)
);
}
);
width = 600;
}
);
unicode = 171;
},
{
glyphname = guillemetright;
lastChange = "2024-01-24 11:00:25 +0000";
layers = (
{
layerId = m01;
shapes = (
{
closed = 1;
nodes = (
(205.51,20.987,o),
(269.435,-9.396,o),
(348.45,52.408,cs),
(415.783,105.074,o),
(483.116,157.741,o),
(550.45,210.408,cs),
(629.535,272.266,o),
(568.474,304.889,o),
(487.55,241.592,cs),
(420.217,188.926,o),
(352.884,136.259,o),
(285.55,83.592,cs)
);
},
{
closed = 1;
nodes = (
(460.837,144.284,o),
(605.336,233.254,o),
(588.073,270.87,cs),
(556.406,339.87,o),
(524.74,408.87,o),
(493.073,477.87,cs),
(475.921,515.243,o),
(332.148,424.691,o),
(348.927,388.13,cs),
(380.594,319.13,o),
(412.26,250.13,o),
(443.927,181.13,cs)
);
},
{
closed = 1;
nodes = (
(-43.49,20.987,o),
(20.435,-9.396,o),
(99.45,52.408,cs),
(166.783,105.074,o),
(234.116,157.741,o),
(301.45,210.408,cs),
(380.535,272.266,o),
(319.474,304.889,o),
(238.55,241.592,cs),
(171.217,188.926,o),
(103.884,136.259,o),
(36.55,83.592,cs)
);
},
{
closed = 1;
nodes = (
(211.837,144.284,o),
(356.336,233.254,o),
(339.073,270.87,cs),
(307.406,339.87,o),
(275.74,408.87,o),
(244.073,477.87,cs),
(226.921,515.243,o),
(83.148,424.691,o),
(99.927,388.13,cs),
(131.594,319.13,o),
(163.26,250.13,o),
(194.927,181.13,cs)
);
}
);
width = 600;
}
);
unicode = 187;
},
{
glyphname = guilsinglleft;
lastChange = "2024-01-24 11:00:25 +0000";
layers = (
{
layerId = m01;
shapes = (
{
closed = 1;
nodes = (
(433,480,o),
(371,513,o),
(291,450,cs),
(223,397,o),
(156,344,o),
(89,292,cs),
(9,229,o),
(72,199,o),
(151,260,cs),
(219,313,o),
(286,366,o),
(353,418,cs)
);
},
{
closed = 1;
nodes = (
(178,358,o),
(34,268,o),
(51,231,cs),
(83,162,o),
(114,93,o),
(146,24,cs),
(163,-13,o),
(307,76,o),
(290,114,cs),
(258,183,o),
(227,252,o),
(195,321,cs)
);
}
);
width = 406;
}
);
unicode = 8249;
},
{
glyphname = guilsinglright;
lastChange = "2024-01-24 11:00:25 +0000";
layers = (
{
layerId = m01;
shapes = (
{
closed = 1;
nodes = (
(7,21,o),
(70,-9,o),
(149,52,cs),
(217,105,o),
(284,158,o),
(351,210,cs),
(431,272,o),
(369,305,o),
(289,242,cs),
(221,189,o),
(154,136,o),
(87,84,cs)
);
},
{
closed = 1;
nodes = (
(262,144,o),
(406,233,o),
(389,271,cs),
(357,340,o),
(326,409,o),
(294,478,cs),
(277,515,o),
(133,425,o),
(150,388,cs),
(182,319,o),
(213,250,o),
(245,181,cs)
);
}
);
width = 406;
}
);
unicode = 8250;
},
{
glyphname = quotedbl;
lastChange = "2024-01-24 11:03:42 +0000";
layers = (
{
layerId = m01;
shapes = (
{
closed = 1;
nodes = (
(217,723,o),
(181,715,o),
(144,696,cs),
(105,677,o),
(65,645,o),
(65,623,cs),
(65,583,o),
(50,453,o),
(50,447,cs),
(47,421,o),
(88,432,o),
(129,454,cs),
(164,473,o),
(198,501,o),
(200,521,cs),
(201,522,o),
(217,663,o),
(217,701,cs)
);
},
{
closed = 1;
nodes = (
(389,721,o),
(359,716,o),
(326,701,cs),
(284,682,o),
(237,647,o),
(237,623,cs),
(237,583,o),
(222,453,o),
(222,447,cs),
(219,420,o),
(264,433,o),
(306,457,cs),
(340,476,o),
(370,502,o),
(372,521,cs),
(373,522,o),
(389,663,o),
(389,701,cs)
);
}
);
width = 409;
}
);
unicode = 34;
},
{
glyphname = quotesingle;
lastChange = "2024-01-24 12:41:16 +0000";
layers = (
{
layerId = m01;
shapes = (
{
closed = 1;
nodes = (
(218,723,o),
(183,715,o),
(146,697,cs),
(106,677,o),
(66,644,o),
(66,622,cs),
(66,589,o),
(50,446,o),
(50,446,cs),
(46,418,o),
(100,434,o),
(145,462,cs),
(174,481,o),
(200,504,o),
(202,522,cs),
(203,528,o),
(218,659,o),
(218,702,cs)
);
}
);
width = 238;
}
);
unicode = 39;
},
{
glyphname = baht;
lastChange = "2024-01-24 12:39:46 +0000";
layers = (
{
layerId = m01;
shapes = (
{
closed = 1;
nodes = (
(47,230,o),
(53,104,o),
(75,173,cs),
(113,293,o),
(258,337,o),
(326,286,cs),
(360,260,o),
(375,210,o),
(346,133,cs),
(324,76,o),
(434,196,o),
(454,249,cs),
(482,323,o),
(470,379,o),
(437,415,cs),
(403,452,o),
(346,469,o),
(287,464,cs),
(197,457,o),
(100,401,o),
(65,289,cs)
);
},
{
closed = 1;
nodes = (
(241,418,o),
(214,379,o),
(207,352,cs),
(200,328,o),
(212,314,o),
(250,336,cs),
(338,388,o),
(401,437,o),
(444,481,cs),
(542,583,o),
(534,663,o),
(478,701,cs),
(441,726,o),
(384,733,o),
(324,718,cs),
(237,696,o),
(142,627,o),
(89,496,cs),
(47,392,o),
(114,341,o),
(159,452,cs),
(179,503,o),
(234,538,o),
(285,556,cs),
(328,570,o),
(368,572,o),
(386,561,cs),
(411,546,o),
(393,506,o),
(278,440,cs)
);
},
{
closed = 1;
nodes = (
(176,507,o),
(100,531,o),
(85,479,cs),
(62,393,o),
(32,221,o),
(32,145,cs),
(32,92,o),
(118,99,o),
(118,153,cs),
(118,211,o),
(140,377,o),
(163,459,cs)
);
},
{
closed = 1;
nodes = (
(481,334,o),
(456,354,o),
(422,257,cs),
(389,166,o),
(279,135,o),
(204,156,cs),
(146,172,o),
(109,220,o),
(149,295,cs),
(187,368,o),
(90,277,o),
(51,203,cs),
(4,114,o),
(40,35,o),
(109,2,cs),
(153,-19,o),
(210,-20,o),
(268,7,cs),
(334,39,o),
(401,111,o),
(446,237,cs)
);
},
{
closed = 1;
nodes = (
(95,-109,o),
(180,-74,o),
(203,-20,cs),
(243,69,o),
(373,786,o),
(374,789,cs),
(383,839,o),
(293,784,o),
(284,737,cs),
(280,711,o),
(157,31,o),
(121,-52,cs)
);
}
);
width = 549;
}
);
unicode = 3647;
},
{
glyphname = at;
lastChange = "2024-01-24 11:00:25 +0000";
layers = (
{
layerId = m01;
shapes = (
{
closed = 1;
nodes = (
(462,-26,o),
(501,6,o),
(535,42,cs),
(571,79,o),
(601,120,o),
(587,123,cs),
(566,129,o),
(576,208,o),
(587,377,cs),
(591,427,o),
(594,449,o),
(600,513,cs),
(603,548,o),
(592,608,o),
(555,628,cs),
(519,649,o),
(456,628,o),
(356,499,cs),
(290,414,o),
(336,409,o),
(404,497,cs),
(407,500,o),
(464,489,o),
(454,379,cs),
(448,313,o),
(446,293,o),
(443,241,cs),
(430,58,o),
(416,-15,o),
(451,-23,cs)
);
},
{
closed = 1;
nodes = (
(451,596,o),
(355,517,o),
(322,452,cs),
(311,430,o),
(295,388,o),
(289,347,cs),
(276,259,o),
(262,120,o),
(246,-3,cs),
(241,-34,o),
(272,-23,o),
(299,1,cs),
(318,17,o),
(334,39,o),
(336,57,cs),
(354,190,o),
(369,335,o),
(383,429,cs),
(389,472,o),
(413,520,o),
(416,526,cs)
);
},
{
closed = 1;
nodes = (
(589,207,o),
(631,241,o),
(659,275,cs),
(688,310,o),
(704,345,o),
(673,345,cs),
(571,345,o),
(470,345,o),
(367,344,cs),
(275,344,o),
(205,330,o),
(183,383,cs),
(174,405,o),
(174,440,o),
(184,492,cs),
(193,541,o),
(219,583,o),
(253,616,cs),
(305,667,o),
(375,695,o),
(432,696,cs),
(479,697,o),
(526,700,o),
(573,701,cs),
(623,702,o),
(670,674,o),
(701,624,cs),
(729,578,o),
(745,514,o),
(737,435,cs),
(724,315,o),
(715,198,o),
(703,80,cs),
(697,23,o),
(676,-17,o),
(640,-44,cs),
(602,-72,o),
(548,-84,o),
(478,-84,cs),
(371,-84,o),
(264,-85,o),
(158,-85,cs),
(133,-85,o),
(98,-112,o),
(72,-141,cs),
(37,-181,o),
(17,-227,o),
(56,-227,cs),
(163,-226,o),
(270,-226,o),
(376,-226,cs),
(433,-226,o),
(543,-186,o),
(641,-112,cs),
(736,-39,o),
(821,67,o),
(835,202,cs),
(847,313,o),
(862,426,o),
(873,535,cs),
(882,619,o),
(864,698,o),
(827,754,cs),
(793,807,o),
(741,840,o),
(681,839,cs),
(631,838,o),
(581,839,o),
(532,838,cs),
(421,836,o),
(303,753,o),
(217,656,cs),
(155,585,o),
(110,507,o),
(98,448,cs),
(86,382,o),
(83,334,o),
(90,298,cs),
(105,220,o),
(165,205,o),
(259,206,cs),
(360,206,o),
(463,206,o),
(565,207,cs)
);
}
);
width = 911;
}
);
unicode = 64;
},
{
glyphname = ampersand;
lastChange = "2024-01-24 12:39:36 +0000";
layers = (
{
layerId = m01;
shapes = (
{
closed = 1;
nodes = (
(257,355,o),
(335,373,o),
(404,466,cs),
(487,581,o),
(493,656,o),
(461,691,cs),
(425,731,o),
(339,718,o),
(264,654,cs),
(194,595,o),
(159,522,o),
(236,588,cs),
(260,608,o),
(307,588,o),
(330,551,cs),
(347,523,o),
(352,487,o),
(326,452,cs)
);
},
{
closed = 1;
nodes = (
(289,673,o),
(169,572,o),
(136,519,cs),
(87,441,o),
(137,408,o),
(199,323,cs),
(257,244,o),
(442,-2,o),
(503,-14,cs),
(522,-18,o),
(649,110,o),
(627,114,cs),
(596,120,o),
(399,337,o),
(351,403,cs),
(287,491,o),
(229,579,o),
(252,615,cs)
);
},
{
closed = 1;
nodes = (
(328,369,o),
(306,414,o),
(211,336,cs),
(46,199,o),
(21,74,o),
(76,17,cs),
(134,-43,o),
(283,-25,o),
(446,144,cs),
(482,182,o),
(520,228,o),
(557,281,cs),
(581,317,o),
(580,334,o),
(566,336,cs),
(549,337,o),
(513,314,o),
(481,269,cs),
(449,222,o),
(416,189,o),
(385,167,cs),
(310,115,o),
(243,122,o),
(209,155,cs),
(176,187,o),
(175,243,o),
(233,290,cs)
);
}
);
width = 680;
}
);
unicode = 38;
},
{
glyphname = section;
lastChange = "2024-01-24 12:39:24 +0000";
layers = (
{
layerId = m01;
shapes = (
{
closed = 1;
nodes = (
(55,118,o),
(-11,-46,o),
(2,-72,cs),
(16,-99,o),
(65,-147,o),
(128,-149,cs),
(172,-150,o),
(222,-128,o),
(271,-59,cs),
(351,55,o),
(367,116,o),
(352,156,cs),
(338,194,o),
(296,213,o),
(254,240,cs),
(207,271,o),
(179,300,o),
(163,324,cs),
(136,366,o),
(145,396,o),
(152,406,cs),
(208,486,o),
(162,504,o),
(108,428,cs),
(50,345,o),
(29,284,o),
(33,237,cs),
(38,182,o),
(77,145,o),
(130,110,cs),
(272,17,o),
(252,11,o),
(249,7,cs),
(243,-2,o),
(195,-1,o),
(148,21,cs),
(116,35,o),
(85,58,o),
(68,94,cs)
);
},
{
closed = 1;
nodes = (
(378,505,o),
(442,673,o),
(431,697,cs),
(420,718,o),
(386,752,o),
(342,766,cs),
(290,783,o),
(224,773,o),
(162,684,cs),
(107,604,o),
(82,551,o),
(77,512,cs),
(68,442,o),
(123,420,o),
(179,384,cs),
(308,300,o),
(292,233,o),
(281,218,cs),
(227,141,o),
(268,116,o),
(325,196,cs),
(381,277,o),
(403,336,o),
(400,383,cs),
(397,441,o),
(357,479,o),
(303,514,cs),
(161,607,o),
(181,613,o),
(184,618,cs),
(190,627,o),
(236,625,o),
(282,605,cs),
(315,591,o),
(347,567,o),
(365,531,cs)
);
}
);
width = 432;
}
);
unicode = 167;
},
{
glyphname = copyright;
lastChange = "2024-01-24 12:39:20 +0000";
layers = (
{
layerId = m01;
shapes = (
{
closed = 1;
nodes = (
(558,503,o),
(561,579,o),
(479,501,cs),
(313,341,o),
(282,201,o),
(322,117,cs),
(367,22,o),
(501,-1,o),
(631,98,cs),
(695,147,o),
(765,306,o),
(691,250,cs),
(577,163,o),
(506,189,o),
(473,245,cs),
(438,303,o),
(443,393,o),
(479,427,cs)
);
},
{
closed = 1;
nodes = (
(631,368,o),
(759,496,o),
(752,515,cs),
(745,538,o),
(724,565,o),
(693,582,cs),
(656,601,o),
(605,605,o),
(549,564,cs),
(498,529,o),
(410,388,o),
(471,432,cs),
(534,476,o),
(607,443,o),
(624,391,cs)
);
},
{
closed = 1;
nodes = (
(568,-145,o),
(950,139,o),
(1028,397,cs),
(1060,504,o),
(1044,600,o),
(995,671,cs),
(935,759,o),
(825,808,o),
(694,794,cs),
(430,766,o),
(99,394,o),
(62,242,cs),
(43,163,o),
(48,89,o),
(71,26,cs),
(119,-104,o),
(247,-187,o),
(401,-167,cs)
);
},
{
closed = 1;
nodes = (
(352,-49,o),
(248,24,o),
(215,143,cs),
(200,196,o),
(200,259,o),
(216,326,cs),
(268,541,o),
(454,662,o),
(582,676,cs),
(692,687,o),
(786,646,o),
(840,573,cs),
(890,507,o),
(907,415,o),
(876,313,cs),
(806,82,o),
(650,-11,o),
(505,-29,cs)
);
}
);
width = 1095;
}
);
unicode = 169;
},
{
glyphname = registered;
lastChange = "2024-01-24 12:39:13 +0000";
layers = (
{
layerId = m01;
shapes = (
{
closed = 1;
nodes = (
(414,159,o),
(671,371,o),
(735,554,cs),
(761,628,o),
(762,705,o),
(734,764,cs),
(698,841,o),
(612,884,o),
(470,844,cs),
(281,789,o),
(47,562,o),
(11,426,cs),
(-6,364,o),
(-4,301,o),
(16,249,cs),
(49,157,o),
(136,98,o),
(269,127,cs)
);
},
{
closed = 1;
nodes = (
(233,237,o),
(169,286,o),
(152,367,cs),
(144,407,o),
(147,455,o),
(161,506,cs),
(189,610,o),
(319,703,o),
(408,728,cs),
(497,754,o),
(558,725,o),
(587,669,cs),
(613,620,o),
(614,551,o),
(589,478,cs),
(540,338,o),
(451,286,o),
(347,263,cs)
);
},
{
closed = 1;
nodes = (
(381,654,o),
(292,614,o),
(256,546,cs),
(203,449,o),
(223,321,o),
(223,315,cs),
(226,276,o),
(336,351,o),
(333,389,cs),
(332,395,o),
(325,549,o),
(344,586,cs)
);
},
{
closed = 1;
nodes = (
(287,484,o),
(300,412,o),
(369,466,cs),
(489,560,o),
(508,630,o),
(483,666,cs),
(443,720,o),
(297,690,o),
(250,531,cs),
(235,481,o),
(316,510,o),
(330,557,cs),
(341,594,o),
(367,603,o),
(380,596,cs),
(391,588,o),
(390,565,o),
(351,534,cs)
);
},
{
closed = 1;
nodes = (
(238,458,o),
(220,349,o),
(269,400,cs),
(310,442,o),
(358,453,o),
(379,428,cs),
(392,413,o),
(394,383,o),
(375,338,cs),
(350,280,o),
(464,323,o),
(485,374,cs),
(510,433,o),
(508,479,o),
(489,510,cs),
(451,572,o),
(349,573,o),
(279,500,cs)
);
}
);
width = 755;
}
);
unicode = 174;
},
{
glyphname = trademark;
lastChange = "2024-01-24 12:39:08 +0000";
layers = (
{
layerId = m01;
shapes = (
{
closed = 1;
nodes = (
(349,565,o),
(412,723,o),
(372,718,cs),
(298,708,o),
(146,727,o),
(99,709,cs),
(77,701,o),
(34,538,o),
(57,547,cs),
(94,561,o),
(242,550,o),
(314,560,cs)
);
},
{
closed = 1;
nodes = (
(252,639,o),
(129,522,o),
(138,504,cs),
(141,498,o),
(137,469,o),
(132,433,cs),
(123,372,o),
(112,290,o),
(125,259,cs),
(130,248,o),
(165,276,o),
(196,307,cs),
(225,336,o),
(251,368,o),
(247,377,cs),
(239,395,o),
(242,434,o),
(248,477,cs),
(256,539,o),
(269,607,o),
(262,620,cs)
);
},
{
closed = 1;
nodes = (
(507,723,o),
(385,604,o),
(404,593,cs),
(428,580,o),
(456,486,o),
(474,395,cs),
(484,345,o),
(491,296,o),
(493,260,cs),
(494,244,o),
(534,276,o),
(568,311,cs),
(594,337,o),
(616,365,o),
(615,376,cs),
(612,424,o),
(601,495,o),
(586,560,cs),
(569,635,o),
(546,701,o),
(522,715,cs)
);
},
{
closed = 1;
nodes = (
(312,247,o),
(344,255,o),
(374,278,cs),
(393,293,o),
(411,314,o),
(418,335,cs),
(428,367,o),
(436,402,o),
(444,437,cs),
(469,550,o),
(481,662,o),
(481,663,cs),
(486,698,o),
(393,619,o),
(389,587,cs),
(389,583,o),
(381,533,o),
(368,468,cs),
(357,410,o),
(341,341,o),
(322,281,cs)
);
},
{
closed = 1;
nodes = (
(480,283,o),
(573,332,o),
(609,380,cs),
(668,461,o),
(725,669,o),
(726,675,cs),
(739,715,o),
(629,619,o),
(618,581,cs),
(615,573,o),
(556,386,o),
(517,334,cs)
);
},
{
closed = 1;
nodes = (
(727,713,o),
(606,591,o),
(635,591,cs),
(637,591,o),
(637,541,o),
(639,479,cs),
(642,397,o),
(648,294,o),
(668,258,cs),
(674,247,o),
(713,279,o),
(745,313,cs),
(772,340,o),
(794,369,o),
(790,376,cs),
(773,406,o),
(767,477,o),
(764,547,cs),
(760,631,o),
(760,713,o),
(749,713,cs)
);
}
);
width = 840;
}
);
unicode = 8482;
},
{
glyphname = degree;
lastChange = "2024-01-24 11:00:25 +0000";
layers = (
{
layerId = m01;
shapes = (
{
closed = 1;
nodes = (
(260,687,o),
(199,694,o),
(130,607,cs),
(44,499,o),
(36,416,o),
(64,370,cs),
(91,324,o),
(150,312,o),
(203,343,cs),
(253,372,o),
(328,523,o),
(269,489,cs),
(217,459,o),
(192,483,o),
(183,515,cs),
(174,546,o),
(178,584,o),
(186,595,cs)
);
},
{
closed = 1;
nodes = (
(186,412,o),
(178,315,o),
(247,391,cs),
(376,532,o),
(398,622,o),
(374,670,cs),
(348,724,o),
(266,726,o),
(214,688,cs),
(154,646,o),
(79,517,o),
(150,568,cs),
(201,603,o),
(226,583,o),
(239,552,cs),
(251,522,o),
(251,483,o),
(249,481,cs)
);
}
);
width = 433;
}
);
unicode = 176;
},
{
glyphname = bar;
lastChange = "2024-01-24 11:00:25 +0000";
layers = (
{
layerId = m01;
shapes = (
{
closed = 1;
nodes = (
(245,784,o),
(208,768,o),
(170,737,cs),
(134,708,o),
(98,665,o),
(94,636,cs),
(94,630,o),
(83,475,o),
(72,319,cs),
(61,161,o),
(50,2,o),
(50,2,cs),
(48,-28,o),
(84,-12,o),
(120,18,cs),
(158,49,o),
(196,94,o),
(198,122,cs),
(198,126,o),
(207,249,o),
(216,385,cs),
(228,554,o),
(241,743,o),
(242,752,cs)
);
}
);
width = 286;
}
);
unicode = 124;
},
{
glyphname = brokenbar;
lastChange = "2024-01-24 11:00:25 +0000";
layers = (
{
layerId = m01;
shapes = (
{
closed = 1;
nodes = (
(229,732,o),
(185,699,o),
(144,660,cs),
(114,630,o),
(85,597,o),
(79,579,cs),
(76,571,o),
(65,351,o),
(65,350,cs),
(64,333,o),
(107,367,o),
(146,406,cs),
(178,437,o),
(207,472,o),
(207,486,cs),
(208,489,o),
(220,707,o),
(221,709,cs)
);
},
{
closed = 1;
nodes = (
(213,379,o),
(173,349,o),
(133,312,cs),
(102,281,o),
(70,246,o),
(64,227,cs),
(61,219,o),
(50,-1,o),
(50,-2,cs),
(49,-18,o),
(90,14,o),
(129,52,cs),
(161,83,o),
(192,119,o),
(192,134,cs),
(193,137,o),
(205,355,o),
(206,357,cs)
);
}
);
width = 272;
}
);
unicode = 166;
},
{
glyphname = dagger;
lastChange = "2024-01-24 11:53:19 +0000";
layers = (
{
layerId = m01;
shapes = (
{
closed = 1;
nodes = (
(104,585,o),
(85,546,o),
(71,505,cs),
(55,461,o),
(43,415,o),
(54,415,cs),
(126,415,o),
(197,416,o),
(269,416,cs),
(325,416,o),
(382,416,o),
(439,416,cs),
(449,416,o),
(469,459,o),
(484,501,cs),
(500,544,o),
(510,586,o),
(499,586,cs),
(429,586,o),
(358,585,o),
(288,585,cs),
(230,585,o),
(172,585,o),
(114,585,cs)
);
},
{
closed = 1;
nodes = (
(367,780,o),
(325,747,o),
(286,709,cs),
(254,677,o),
(224,641,o),
(222,627,cs),
(221,623,o),
(212,487,o),
(203,360,cs),
(196,244,o),
(189,135,o),
(189,135,cs),
(187,119,o),
(229,151,o),
(268,189,cs),
(300,221,o),
(331,256,o),
(331,271,cs),
(332,274,o),
(339,380,o),
(346,492,cs),
(354,619,o),
(363,754,o),
(364,761,cs)
);
}
);
width = 554;
}
);
unicode = 8224;
},
{
glyphname = daggerdbl;
lastChange = "2024-01-24 11:00:25 +0000";
layers = (
{
layerId = m01;
shapes = (
{
closed = 1;
nodes = (
(141,657,o),
(122,619,o),
(107,579,cs),
(91,534,o),
(79,487,o),
(90,487,cs),
(234,488,o),
(379,488,o),
(523,488,cs),
(534,488,o),
(559,542,o),
(574,589,cs),
(586,626,o),
(592,658,o),
(583,658,cs),
(439,657,o),
(294,657,o),
(150,657,cs)
);
},
{
closed = 1;
nodes = (
(103,404,o),
(80,353,o),
(65,307,cs),
(52,269,o),
(45,234,o),
(54,234,cs),
(198,235,o),
(343,235,o),
(487,235,cs),
(497,235,o),
(520,283,o),
(535,327,cs),
(549,367,o),
(557,405,o),
(547,405,cs),
(403,404,o),
(258,404,o),
(114,404,cs)
);
},
{
closed = 1;
nodes = (
(427,781,o),
(384,747,o),
(344,707,cs),
(313,676,o),
(284,641,o),
(282,627,cs),
(281,623,o),
(276,541,o),
(269,445,cs),
(260,305,o),
(249,135,o),
(249,135,cs),
(247,119,o),
(289,151,o),
(328,189,cs),
(360,220,o),
(391,256,o),
(391,271,cs),
(392,275,o),
(400,402,o),
(408,526,cs),
(416,642,o),
(424,755,o),
(424,761,cs)
);
}
);
width = 637;
}
);
unicode = 8225;
},
{
glyphname = cent;
lastChange = "2024-01-24 11:00:25 +0000";
layers = (
{
layerId = m01;
shapes = (
{
closed = 1;
nodes = (
(251,536,o),
(254,612,o),
(172,534,cs),
(-19,350,o),
(-31,192,o),
(38,116,cs),
(96,51,o),
(211,45,o),
(324,131,cs),
(388,180,o),
(458,339,o),
(384,283,cs),
(306,223,o),
(248,217,o),
(209,236,cs),
(132,275,o),
(125,415,o),
(172,460,cs)
);
},
{
closed = 1;
nodes = (
(341,408,o),
(469,536,o),
(462,555,cs),
(454,582,o),
(427,613,o),
(389,628,cs),
(354,641,o),
(309,640,o),
(259,604,cs),
(208,569,o),
(120,428,o),
(181,472,cs),
(207,490,o),
(234,495,o),
(258,491,cs),
(294,486,o),
(323,462,o),
(334,431,cs)
);
},
{
closed = 1;
nodes = (
(98,-86,o),
(184,-48,o),
(205,5,cs),
(237,85,o),
(346,724,o),
(347,727,cs),
(356,776,o),
(265,720,o),
(257,673,cs),
(253,651,o),
(150,45,o),
(121,-29,cs)
);
}
);
width = 463;
}
);
unicode = 162;
},
{
glyphname = currency;
lastChange = "2024-01-24 11:20:22 +0000";
layers = (
{
layerId = m01;
shapes = (
{
closed = 1;
nodes = (
(349,582,o),
(288,589,o),
(219,502,cs),
(109,363,o),
(107,254,o),
(151,197,cs),
(187,151,o),
(254,140,o),
(318,177,cs),
(368,206,o),
(443,357,o),
(384,323,cs),
(321,287,o),
(284,303,o),
(266,337,cs),
(242,383,o),
(251,459,o),
(275,490,cs)
);
},
{
closed = 1;
nodes = (
(304,250,o),
(298,156,o),
(367,232,cs),
(548,431,o),
(547,553,o),
(486,602,cs),
(443,637,o),
(369,633,o),
(311,592,cs),
(251,550,o),
(176,421,o),
(247,472,cs),
(303,511,o),
(342,501,o),
(364,471,cs),
(396,430,o),
(395,351,o),
(367,320,cs)
);
},
{
closed = 1;
nodes = (
(473,65,o),
(594,185,o),
(568,217,cs),
(529,266,o),
(498,297,o),
(460,345,cs),
(436,375,o),
(292,284,o),
(318,251,cs),
(364,195,o),
(403,152,o),
(448,97,cs)
);
},
{
closed = 1;
nodes = (
(281,280,o),
(285,317,o),
(263,323,cs),
(249,327,o),
(223,316,o),
(191,285,cs),
(179,273,o),
(93,162,o),
(93,162,cs),
(59,118,o),
(62,94,o),
(83,92,cs),
(103,90,o),
(140,109,o),
(173,152,cs),
(177,158,o),
(233,231,o),
(233,231,cs)
);
},
{
closed = 1;
nodes = (
(594,669,o),
(600,706,o),
(581,714,cs),
(567,720,o),
(540,710,o),
(506,677,cs),
(494,665,o),
(408,554,o),
(408,554,cs),
(381,519,o),
(378,496,o),
(388,488,cs),
(403,475,o),
(448,493,o),
(488,544,cs),
(492,550,o),
(548,623,o),
(548,623,cs)
);
},
{
closed = 1;
nodes = (
(198,408,o),
(318,529,o),
(302,548,cs),
(261,600,o),
(216,660,o),
(174,711,cs),
(149,742,o),
(27,624,o),
(54,591,cs),
(96,538,o),
(139,480,o),
(182,428,cs)
);
}
);
width = 641;
}
);
unicode = 164;
},
{
glyphname = dollar;
lastChange = "2024-01-24 11:21:21 +0000";
layers = (
{
layerId = m01;
shapes = (
{
closed = 1;
nodes = (
(55,270,o),
(-11,106,o),
(2,80,cs),
(16,53,o),
(61,4,o),
(119,-11,cs),
(175,-25,o),
(243,-9,o),
(310,86,cs),
(386,194,o),
(409,258,o),
(404,302,cs),
(396,359,o),
(339,382,o),
(280,420,cs),
(121,524,o),
(152,553,o),
(156,558,cs),
(165,571,o),
(213,570,o),
(263,546,cs),
(300,528,o),
(338,496,o),
(360,447,cs),
(371,422,o),
(434,592,o),
(424,613,cs),
(416,632,o),
(388,667,o),
(349,690,cs),
(292,724,o),
(212,733,o),
(136,626,cs),
(77,543,o),
(51,485,o),
(46,441,cs),
(38,367,o),
(91,333,o),
(156,290,cs),
(316,185,o),
(303,174,o),
(288,152,cs),
(277,136,o),
(232,135,o),
(185,151,cs),
(140,167,o),
(92,197,o),
(68,246,cs)
);
},
{
closed = 1;
nodes = (
(65,-109,o),
(150,-74,o),
(173,-20,cs),
(213,69,o),
(343,786,o),
(344,789,cs),
(353,839,o),
(263,784,o),
(254,737,cs),
(250,711,o),
(127,31,o),
(91,-52,cs)
);
}
);
width = 455;
}
);
unicode = 36;
},
{
glyphname = euro;
lastChange = "2024-01-24 11:00:25 +0000";
layers = (
{
layerId = m01;
shapes = (
{
closed = 1;
nodes = (
(424,647,o),
(347,629,o),
(285,543,cs),
(163,373,o),
(136,209,o),
(168,103,cs),
(206,-25,o),
(330,-70,o),
(478,56,cs),
(546,114,o),
(606,266,o),
(528,200,cs),
(396,88,o),
(303,164,o),
(287,290,cs),
(276,370,o),
(297,469,o),
(357,553,cs)
);
},
{
closed = 1;
nodes = (
(491,484,o),
(618,611,o),
(608,628,cs),
(586,664,o),
(536,778,o),
(400,662,cs),
(341,612,o),
(269,483,o),
(338,542,cs),
(406,599,o),
(451,549,o),
(480,502,cs)
);
},
{
closed = 1;
nodes = (
(84,451,o),
(33,371,o),
(78,374,cs),
(136,377,o),
(471,376,o),
(492,376,cs),
(530,377,o),
(582,456,o),
(538,456,cs),
(538,456,o),
(163,455,o),
(122,452,cs)
);
},
{
closed = 1;
nodes = (
(44,312,o),
(-7,232,o),
(38,235,cs),
(96,238,o),
(431,237,o),
(452,237,cs),
(490,238,o),
(542,317,o),
(498,317,cs),
(498,317,o),
(123,316,o),
(82,313,cs)
);
}
);
width = 659;
}
);
unicode = 8364;
},
{
glyphname = hryvnia;
lastChange = "2024-01-24 11:20:54 +0000";
layers = (
{
layerId = m01;
shapes = (
{
closed = 1;
nodes = (
(363,285,o),
(366,306,o),
(350,314,cs),
(334,322,o),
(295,314,o),
(252,283,cs),
(102,174,o),
(72,88,o),
(95,37,cs),
(126,-29,o),
(242,-41,o),
(309,18,cs),
(371,73,o),
(426,211,o),
(355,148,cs),
(319,116,o),
(251,111,o),
(237,140,cs),
(226,160,o),
(244,199,o),
(324,257,cs)
);
},
{
closed = 1;
nodes = (
(111,449,o),
(60,370,o),
(105,373,cs),
(160,376,o),
(469,375,o),
(489,375,cs),
(527,376,o),
(579,455,o),
(535,455,cs),
(535,455,o),
(188,454,o),
(149,451,cs)
);
},
{
closed = 1;
nodes = (
(74,312,o),
(23,233,o),
(68,236,cs),
(122,239,o),
(432,238,o),
(452,238,cs),
(490,239,o),
(542,318,o),
(498,318,cs),
(498,318,o),
(150,317,o),
(112,314,cs)
);
},
{
closed = 1;
nodes = (
(265,416,o),
(256,399,o),
(259,389,cs),
(266,371,o),
(315,374,o),
(366,411,cs),
(513,518,o),
(546,602,o),
(525,654,cs),
(498,723,o),
(378,737,o),
(309,676,cs),
(247,621,o),
(191,483,o),
(263,546,cs),
(299,577,o),
(363,583,o),
(380,558,cs),
(394,538,o),
(379,499,o),
(294,437,cs)
);
}
);
width = 602;
}
);
unicode = 8372;
},
{
glyphname = ruble;
lastChange = "2024-01-24 11:00:25 +0000";
layers = (
{
layerId = m01;
shapes = (
{
closed = 1;
nodes = (
(294,577,o),
(176,517,o),
(144,458,cs),
(95,371,o),
(98,16,o),
(98,11,cs),
(97,-33,o),
(223,59,o),
(224,99,cs),
(224,113,o),
(230,463,o),
(258,514,cs)
);
},
{
closed = 1;
nodes = (
(22,192,o),
(-27,113,o),
(19,117,cs),
(46,119,o),
(270,119,o),
(278,119,cs),
(316,120,o),
(368,199,o),
(324,199,cs),
(324,199,o),
(89,198,o),
(61,195,cs)
);
},
{
closed = 1;
nodes = (
(63,319,o),
(14,240,o),
(60,245,cs),
(78,246,o),
(281,244,o),
(283,244,cs),
(284,244,o),
(300,244,o),
(318,262,cs),
(492,438,o),
(513,594,o),
(466,668,cs),
(435,716,o),
(377,730,o),
(313,694,cs),
(251,660,o),
(185,579,o),
(134,437,cs),
(95,329,o),
(168,294,o),
(208,405,cs),
(261,551,o),
(350,596,o),
(389,567,cs),
(426,540,o),
(417,446,o),
(284,312,c),
(296,318,o),
(307,324,o),
(319,330,c),
(309,330,o),
(134,327,o),
(102,323,cs)
);
}
);
width = 488;
}
);
unicode = 8381;
},
{
glyphname = rupeeIndian;
lastChange = "2024-01-24 11:21:57 +0000";
layers = (
{
layerId = m01;
shapes = (
{
closed = 1;
nodes = (
(72,371,o),
(22,287,o),
(105,311,cs),
(161,328,o),
(218,320,o),
(239,267,cs),
(257,224,o),
(252,152,o),
(206,41,cs),
(167,-54,o),
(318,34,o),
(352,117,cs),
(414,268,o),
(413,352,o),
(369,391,cs),
(328,427,o),
(249,422,o),
(147,393,cs)
);
},
{
closed = 1;
nodes = (
(14,305,o),
(92,284,o),
(170,343,cs),
(356,486,o),
(385,596,o),
(346,657,cs),
(301,728,o),
(168,736,o),
(78,661,cs),
(33,623,o),
(61,582,o),
(108,621,cs),
(139,647,o),
(230,632,o),
(239,568,cs),
(245,524,o),
(212,457,o),
(92,365,cs)
);
},
{
closed = 1;
nodes = (
(179,711,o),
(130,631,o),
(176,636,cs),
(200,638,o),
(393,638,o),
(400,638,cs),
(438,639,o),
(490,718,o),
(446,718,cs),
(446,718,o),
(243,717,o),
(218,714,cs)
);
},
{
closed = 1;
nodes = (
(38,543,o),
(-12,464,o),
(33,467,cs),
(78,470,o),
(343,469,o),
(360,469,cs),
(398,470,o),
(450,549,o),
(406,549,cs),
(406,549,o),
(110,548,o),
(77,545,cs)
);
}
);
width = 463;
}
);
unicode = 8377;
},
{
glyphname = sheqel;
lastChange = "2024-01-24 11:22:10 +0000";
layers = (
{
layerId = m01;
shapes = (
{
closed = 1;
nodes = (
(242,853,o),
(112,766,o),
(98,699,cs),
(94,683,o),
(77,563,o),
(58,427,cs),
(31,233,o),
(0,8,o),
(0,7,cs),
(-9,-61,o),
(121,32,o),
(130,97,cs),
(132,112,o),
(155,279,o),
(177,445,cs),
(199,601,o),
(221,757,o),
(226,781,cs)
);
},
{
closed = 1;
nodes = (
(165,809,o),
(50,668,o),
(118,669,cs),
(191,669,o),
(263,671,o),
(337,672,cs),
(394,672,o),
(441,650,o),
(432,596,cs),
(409,462,o),
(392,329,o),
(370,196,cs),
(363,158,o),
(496,282,o),
(502,318,cs),
(523,442,o),
(547,567,o),
(568,690,cs),
(578,750,o),
(522,811,o),
(445,810,cs),
(371,809,o),
(295,810,o),
(220,809,cs)
);
},
{
closed = 1;
nodes = (
(500,-61,o),
(630,32,o),
(644,95,cs),
(649,115,o),
(675,301,o),
(699,475,cs),
(721,635,o),
(742,786,o),
(742,787,cs),
(751,855,o),
(620,759,o),
(612,697,cs),
(610,684,o),
(592,546,o),
(571,397,cs),
(547,225,o),
(521,39,o),
(516,13,cs)
);
},
{
closed = 1;
nodes = (
(577,-15,o),
(691,126,o),
(624,125,cs),
(551,125,o),
(479,123,o),
(405,122,cs),
(348,122,o),
(301,144,o),
(310,198,cs),
(333,332,o),
(350,465,o),
(372,598,cs),
(379,638,o),
(245,509,o),
(240,476,cs),
(219,352,o),
(195,227,o),
(174,104,cs),
(164,44,o),
(220,-17,o),
(297,-16,cs),
(371,-15,o),
(447,-16,o),
(522,-15,cs)
);
}
);
width = 742;
}
);
unicode = 8362;
},
{
glyphname = sterling;
lastChange = "2024-01-24 11:00:25 +0000";
layers = (
{
layerId = m01;
shapes = (
{
closed = 1;
nodes = (
(383,664,o),
(346,688,o),
(295,642,cs),
(159,522,o),
(172,444,o),
(155,308,cs),
(145,225,o),
(120,141,o),
(110,129,cs),
(71,84,o),
(136,90,o),
(172,131,cs),
(226,193,o),
(227,265,o),
(239,356,cs),
(256,494,o),
(265,560,o),
(333,620,cs)
);
},
{
closed = 1;
nodes = (
(53,393,o),
(3,314,o),
(48,317,cs),
(93,320,o),
(345,319,o),
(362,319,cs),
(400,320,o),
(452,399,o),
(408,399,cs),
(408,399,o),
(125,398,o),
(92,395,cs)
);
},
{
closed = 1;
nodes = (
(116,179,o),
(43,1,o),
(80,-1,cs),
(100,-2,o),
(284,-1,o),
(405,0,cs),
(439,0,o),
(500,170,o),
(461,170,cs),
(344,169,o),
(166,176,o),
(150,177,cs)
);
},
{
closed = 1;
nodes = (
(405,486,o),
(532,613,o),
(522,630,cs),
(510,650,o),
(489,694,o),
(450,709,cs),
(418,722,o),
(375,716,o),
(314,664,cs),
(255,614,o),
(183,485,o),
(252,544,cs),
(320,601,o),
(365,551,o),
(394,504,cs)
);
}
);
width = 493;
}
);
unicode = 163;
},
{
glyphname = won;
lastChange = "2024-01-24 11:24:25 +0000";
layers = (
{
layerId = m01;
shapes = (
{
closed = 1;
nodes = (
(423,-17,o),
(543,103,o),
(534,120,cs),
(504,174,o),
(496,297,o),
(490,418,cs),
(484,553,o),
(480,685,o),
(451,712,cs),
(438,725,o),
(316,606,o),
(331,592,cs),
(351,573,o),
(357,489,o),
(362,388,cs),
(369,246,o),
(374,70,o),
(412,2,cs)
);
},
{
closed = 1;
nodes = (
(775,750,o),
(657,679,o),
(635,626,cs),
(602,546,o),
(575,469,o),
(552,398,cs),
(485,194,o),
(457,44,o),
(456,40,cs),
(449,8,o),
(559,124,o),
(566,158,cs),
(568,166,o),
(603,301,o),
(678,504,cs),
(699,561,o),
(723,623,o),
(751,690,cs)
);
},
{
closed = 1;
nodes = (
(186,-17,o),
(306,103,o),
(297,120,cs),
(268,172,o),
(259,291,o),
(253,408,cs),
(245,546,o),
(242,684,o),
(213,712,cs),
(200,725,o),
(78,606,o),
(93,592,cs),
(119,566,o),
(121,423,o),
(130,281,cs),
(136,167,o),
(146,54,o),
(175,2,cs)
);
},
{
closed = 1;
nodes = (
(479,640,o),
(383,612,o),
(375,589,cs),
(309,416,o),
(221,52,o),
(218,39,cs),
(208,4,o),
(316,119,o),
(324,151,cs),
(327,161,o),
(407,453,o),
(469,615,cs)
);
},
{
closed = 1;
nodes = (
(74,442,o),
(23,363,o),
(67,364,cs),
(154,367,o),
(639,367,o),
(670,367,cs),
(708,368,o),
(760,447,o),
(716,447,cs),
(716,447,o),
(172,446,o),
(113,444,cs)
);
}
);
width = 754;
}
);
unicode = 8361;
},
{
glyphname = yen;
lastChange = "2024-01-24 11:23:52 +0000";
layers = (
{
layerId = m01;
shapes = (
{
closed = 1;
nodes = (
(632,748,o),
(522,715,o),
(473,631,cs),
(453,596,o),
(174,44,o),
(174,43,cs),
(131,-41,o),
(252,12,o),
(290,89,cs),
(303,113,o),
(560,624,o),
(583,663,cs)
);
},
{
closed = 1;
nodes = (
(324,347,o),
(441,476,o),
(397,458,cs),
(364,445,o),
(335,492,o),
(306,549,cs),
(266,629,o),
(225,728,o),
(175,713,cs),
(143,704,o),
(20,574,o),
(59,585,cs),
(101,597,o),
(135,500,o),
(176,421,cs),
(207,362,o),
(242,314,o),
(285,332,cs)
);
},
{
closed = 1;
nodes = (
(84,451,o),
(33,371,o),
(78,374,cs),
(136,377,o),
(471,376,o),
(492,376,cs),
(530,377,o),
(582,456,o),
(538,456,cs),
(538,456,o),
(163,455,o),
(122,452,cs)
);
},
{
closed = 1;
nodes = (
(44,312,o),
(-7,232,o),
(38,235,cs),
(96,238,o),
(431,237,o),
(452,237,cs),
(490,238,o),
(542,317,o),
(498,317,cs),
(498,317,o),
(123,316,o),
(82,313,cs)
);
}
);
width = 595;
}
);
unicode = 165;
},
{
glyphname = plus;
lastChange = "2024-01-24 11:29:54 +0000";
layers = (
{
layerId = m01;
shapes = (
{
closed = 1;
nodes = (
(94,356,o),
(33,186,o),
(54,186,cs),
(198,187,o),
(343,187,o),
(487,187,cs),
(506,187,o),
(568,357,o),
(547,357,cs),
(403,356,o),
(258,356,o),
(114,356,cs)
);
},
{
closed = 1;
nodes = (
(393,574,o),
(250,438,o),
(243,403,cs),
(241,396,o),
(216,6,o),
(216,5,cs),
(213,-25,o),
(356,109,o),
(358,141,cs),
(359,147,o),
(383,527,o),
(385,537,cs)
);
}
);
width = 601;
}
);
unicode = 43;
},
{
glyphname = minus;
lastChange = "2024-01-24 11:00:25 +0000";
layers = (
{
layerId = m01;
shapes = (
{
closed = 1;
nodes = (
(44,353,o),
(-17,183,o),
(4,183,cs),
(148,184,o),
(293,184,o),
(437,184,cs),
(456,184,o),
(518,354,o),
(497,354,cs),
(353,353,o),
(208,353,o),
(64,353,cs)
);
}
);
width = 501;
}
);
unicode = 8722;
},
{
glyphname = multiply;
lastChange = "2024-01-24 11:27:59 +0000";
layers = (
{
layerId = m01;
shapes = (
{
closed = 1;
nodes = (
(573,521,o),
(511,551,o),
(438,472,cs),
(406,439,o),
(92,58,o),
(91,56,cs),
(62,21,o),
(59,-3,o),
(70,-11,cs),
(86,-22,o),
(127,-6,o),
(167,42,cs),
(177,53,o),
(483,424,o),
(496,438,cs)
);
},
{
closed = 1;
nodes = (
(414,-23,o),
(453,-9,o),
(487,11,cs),
(525,34,o),
(557,66,o),
(544,83,cs),
(477,165,o),
(410,247,o),
(344,328,cs),
(294,390,o),
(244,451,o),
(195,512,cs),
(184,524,o),
(151,514,o),
(119,497,cs),
(78,475,o),
(39,439,o),
(53,420,cs),
(116,343,o),
(178,267,o),
(241,190,cs),
(295,124,o),
(349,57,o),
(402,-8,cs)
);
}
);
width = 597;
}
);
unicode = 215;
},
{
glyphname = divide;
lastChange = "2024-01-24 11:00:25 +0000";
layers = (
{
layerId = m01;
shapes = (
{
closed = 1;
nodes = (
(44,353,o),
(-17,183,o),
(4,183,cs),
(148,184,o),
(293,184,o),
(437,184,cs),
(456,184,o),
(518,354,o),
(497,354,cs),
(353,353,o),
(208,353,o),
(64,353,cs)
);
}
);
width = 501;
}
);
unicode = 247;
},
{
glyphname = equal;
lastChange = "2024-01-24 11:30:12 +0000";
layers = (
{
layerId = m01;
shapes = (
{
closed = 1;
nodes = (
(100,462,o),
(39,292,o),
(60,292,cs),
(204,293,o),
(349,293,o),
(493,293,cs),
(512,293,o),
(574,463,o),
(553,463,cs),
(409,462,o),
(264,462,o),
(120,462,cs)
);
},
{
closed = 1;
nodes = (
(64,209,o),
(3,39,o),
(24,39,cs),
(168,40,o),
(313,40,o),
(457,40,cs),
(476,40,o),
(538,210,o),
(517,210,cs),
(373,209,o),
(228,209,o),
(84,209,cs)
);
}
);
width = 607;
}
);
unicode = 61;
},
{
glyphname = notequal;
lastChange = "2024-01-24 11:30:44 +0000";
layers = (
{
layerId = m01;
shapes = (
{
pos = (0,12);
ref = equal;
},
{
closed = 1;
nodes = (
(502,537,o),
(495,559,o),
(471,557,cs),
(449,556,o),
(413,533,o),
(382,490,cs),
(352,448,o),
(92,11,o),
(90,7,cs),
(66,-34,o),
(76,-50,o),
(99,-47,cs),
(125,-43,o),
(167,-14,o),
(194,31,cs),
(204,48,o),
(459,476,o),
(470,492,cs)
);
}
);
width = 607;
}
);
unicode = 8800;
},
{
glyphname = greater;
lastChange = "2024-01-24 11:00:25 +0000";
layers = (
{
layerId = m01;
shapes = (
{
closed = 1;
nodes = (
(92,56,o),
(81,33,o),
(87,20,cs),
(95,5,o),
(130,6,o),
(177,40,cs),
(271,107,o),
(365,174,o),
(459,241,cs),
(541,299,o),
(497,345,o),
(411,283,cs),
(317,216,o),
(223,149,o),
(129,82,cs)
);
},
{
closed = 1;
nodes = (
(394,190,o),
(535,285,o),
(498,311,cs),
(404,378,o),
(310,445,o),
(216,511,cs),
(203,521,o),
(169,509,o),
(137,490,cs),
(96,465,o),
(58,428,o),
(80,413,cs),
(174,346,o),
(268,279,o),
(362,213,cs)
);
}
);
width = 579;
}
);
unicode = 62;
},
{
glyphname = less;
lastChange = "2024-01-24 11:00:25 +0000";
layers = (
{
layerId = m01;
shapes = (
{
closed = 1;
nodes = (
(491,470,o),
(501,495,o),
(491,507,cs),
(481,519,o),
(448,516,o),
(403,484,cs),
(309,417,o),
(215,350,o),
(120,283,cs),
(37,224,o),
(83,181,o),
(168,241,cs),
(262,308,o),
(356,375,o),
(451,442,cs)
);
},
{
closed = 1;
nodes = (
(185,334,o),
(43,239,o),
(81,213,cs),
(175,146,o),
(269,79,o),
(364,13,cs),
(379,2,o),
(419,18,o),
(453,40,cs),
(490,65,o),
(520,98,o),
(500,111,cs),
(406,178,o),
(312,245,o),
(217,311,cs)
);
}
);
width = 580;
}
);
unicode = 60;
},
{
glyphname = greaterequal;
lastChange = "2024-01-24 11:00:25 +0000";
layers = (
{
layerId = m01;
shapes = (
{
closed = 1;
nodes = (
(175,256,o),
(151,232,o),
(144,214,cs),
(137,192,o),
(156,179,o),
(209,201,cs),
(288,234,o),
(367,268,o),
(446,301,cs),
(535,338,o),
(548,413,o),
(452,373,cs),
(373,340,o),
(294,306,o),
(215,273,cs)
);
},
{
closed = 1;
nodes = (
(470,288,o),
(584,415,o),
(544,433,cs),
(456,474,o),
(368,514,o),
(280,555,cs),
(263,563,o),
(221,545,o),
(185,521,cs),
(143,493,o),
(109,456,o),
(134,445,cs),
(234,398,o),
(334,352,o),
(434,305,cs)
);
},
{
closed = 1;
nodes = (
(123,134,o),
(104,96,o),
(91,58,cs),
(77,19,o),
(68,-20,o),
(79,-20,cs),
(203,-20,o),
(328,-20,o),
(452,-19,cs),
(463,-19,o),
(485,28,o),
(499,71,cs),
(510,105,o),
(516,135,o),
(506,135,cs),
(382,135,o),
(257,135,o),
(133,134,cs)
);
}
);
width = 627;
}
);
unicode = 8805;
},
{
glyphname = lessequal;
lastChange = "2024-01-24 11:00:25 +0000";
layers = (
{
layerId = m01;
shapes = (
{
closed = 1;
nodes = (
(124,119,o),
(107,86,o),
(93,50,cs),
(78,9,o),
(68,-35,o),
(79,-35,cs),
(203,-35,o),
(328,-35,o),
(452,-34,cs),
(462,-34,o),
(481,5,o),
(495,44,cs),
(509,82,o),
(517,120,o),
(506,120,cs),
(382,120,o),
(257,120,o),
(133,119,cs)
);
},
{
closed = 1;
nodes = (
(535,490,o),
(564,538,o),
(544,550,cs),
(535,556,o),
(518,554,o),
(490,541,cs),
(396,498,o),
(301,454,o),
(207,410,cs),
(122,371,o),
(101,289,o),
(193,332,cs),
(287,375,o),
(382,419,o),
(476,463,cs)
);
},
{
closed = 1;
nodes = (
(238,443,o),
(90,337,o),
(135,316,cs),
(229,272,o),
(323,229,o),
(418,185,cs),
(435,177,o),
(473,193,o),
(506,216,cs),
(549,245,o),
(583,284,o),
(558,295,cs),
(464,339,o),
(370,382,o),
(275,426,cs)
);
}
);
width = 642;
}
);
unicode = 8804;
},
{
glyphname = plusminus;
lastChange = "2024-01-24 11:00:25 +0000";
layers = (
{
layerId = m01;
shapes = (
{
closed = 1;
nodes = (
(98,119,o),
(78,76,o),
(64,36,cs),
(52,-1,o),
(45,-35,o),
(55,-35,cs),
(179,-35,o),
(304,-35,o),
(428,-34,cs),
(440,-34,o),
(466,25,o),
(479,70,cs),
(487,98,o),
(490,120,o),
(482,120,cs),
(358,120,o),
(233,120,o),
(109,119,cs)
);
},
{
closed = 1;
nodes = (
(106,454,o),
(86,412,o),
(71,370,cs),
(56,328,o),
(46,284,o),
(56,284,cs),
(137,284,o),
(218,285,o),
(299,285,cs),
(362,285,o),
(426,285,o),
(489,285,cs),
(499,285,o),
(522,333,o),
(537,378,cs),
(551,417,o),
(559,455,o),
(549,455,cs),
(469,455,o),
(389,454,o),
(309,454,cs),
(245,454,o),
(180,454,o),
(116,454,cs)
);
},
{
closed = 1;
nodes = (
(389,602,o),
(345,568,o),
(305,528,cs),
(274,497,o),
(245,463,o),
(242,447,cs),
(240,440,o),
(221,158,o),
(221,157,cs),
(219,139,o),
(268,178,o),
(309,220,cs),
(338,249,o),
(363,280,o),
(363,293,cs),
(364,297,o),
(383,573,o),
(384,581,cs)
);
}
);
width = 603;
}
);
unicode = 177;
},
{
glyphname = asciitilde;
lastChange = "2024-01-24 11:31:12 +0000";
layers = (
{
layerId = m01;
shapes = (
{
closed = 1;
nodes = (
(534,254,o),
(556,303,o),
(567,345,cs),
(578,387,o),
(579,421,o),
(556,406,cs),
(419,319,o),
(409,362,o),
(361,397,cs),
(295,446,o),
(244,477,o),
(109,388,cs),
(95,379,o),
(79,349,o),
(67,317,cs),
(48,264,o),
(40,205,o),
(69,224,cs),
(202,311,o),
(227,280,o),
(295,231,cs),
(332,204,o),
(369,149,o),
(514,242,cs)
);
}
);
width = 625;
}
);
unicode = 126;
},
{
glyphname = logicalnot;
lastChange = "2024-01-24 11:00:25 +0000";
layers = (
{
layerId = m01;
shapes = (
{
closed = 1;
nodes = (
(105,423,o),
(87,387,o),
(73,349,cs),
(56,303,o),
(43,253,o),
(54,253,cs),
(197,254,o),
(341,254,o),
(484,254,cs),
(503,254,o),
(565,424,o),
(544,424,cs),
(401,423,o),
(257,423,o),
(114,423,cs)
);
},
{
closed = 1;
nodes = (
(557,443,o),
(414,308,o),
(405,272,cs),
(403,265,o),
(387,9,o),
(387,8,cs),
(385,-10,o),
(435,30,o),
(476,71,cs),
(504,100,o),
(529,131,o),
(529,144,cs),
(530,148,o),
(546,398,o),
(547,404,cs)
);
}
);
width = 598;
}
);
unicode = 172;
},
{
glyphname = asciicircum;
lastChange = "2024-01-24 11:31:28 +0000";
layers = (
{
layerId = m01;
shapes = (
{
closed = 1;
nodes = (
(397,306,o),
(440,321,o),
(475,344,cs),
(506,365,o),
(531,392,o),
(521,409,cs),
(469,504,o),
(417,599,o),
(364,693,cs),
(345,728,o),
(210,644,o),
(230,609,cs),
(282,514,o),
(334,419,o),
(387,325,cs)
);
},
{
closed = 1;
nodes = (
(394,738,o),
(255,688,o),
(221,627,cs),
(166,531,o),
(112,434,o),
(57,338,cs),
(37,304,o),
(66,302,o),
(102,316,cs),
(136,329,o),
(177,356,o),
(193,384,cs),
(248,480,o),
(302,577,o),
(357,673,cs)
);
}
);
width = 573;
}
);
unicode = 94;
},
{
glyphname = infinity;
lastChange = "2024-01-24 11:31:37 +0000";
layers = (
{
layerId = m01;
shapes = (
{
closed = 1;
nodes = (
(237,462,o),
(187,453,o),
(120,380,cs),
(46,301,o),
(36,229,o),
(66,186,cs),
(102,132,o),
(198,122,o),
(308,194,cs),
(340,215,o),
(375,257,o),
(393,289,cs),
(413,324,o),
(414,348,o),
(374,322,cs),
(283,264,o),
(227,284,o),
(196,316,cs),
(169,343,o),
(160,379,o),
(164,384,cs)
);
},
{
closed = 1;
nodes = (
(224,483,o),
(102,353,o),
(140,369,cs),
(225,402,o),
(300,336,o),
(365,274,cs),
(372,267,o),
(494,389,o),
(487,396,cs),
(422,458,o),
(355,534,o),
(256,495,cs)
);
},
{
closed = 1;
nodes = (
(641,173,o),
(712,206,o),
(772,278,cs),
(827,343,o),
(838,422,o),
(805,467,cs),
(761,528,o),
(641,530,o),
(444,367,cs),
(351,290,o),
(375,246,o),
(472,327,cs),
(548,390,o),
(643,367,o),
(688,326,cs),
(714,302,o),
(724,272,o),
(704,248,cs)
);
},
{
closed = 1;
nodes = (
(650,145,o),
(771,274,o),
(732,259,cs),
(632,222,o),
(564,318,o),
(488,396,cs),
(481,403,o),
(359,281,o),
(366,274,cs),
(442,196,o),
(502,90,o),
(616,133,cs)
);
}
);
width = 874;
}
);
unicode = 8734;
},
{
glyphname = integral;
lastChange = "2024-01-24 11:32:29 +0000";
layers = (
{
layerId = m01;
shapes = (
{
closed = 1;
nodes = (
(382,421,o),
(245,315,o),
(239,256,cs),
(231,183,o),
(227,110,o),
(220,40,cs),
(219,32,o),
(198,-3,o),
(132,-4,cs),
(112,-5,o),
(92,-5,o),
(72,-5,cs),
(46,-6,o),
(11,-33,o),
(-16,-64,cs),
(-49,-103,o),
(-67,-147,o),
(-28,-147,cs),
(-8,-146,o),
(12,-146,o),
(32,-146,cs),
(87,-145,o),
(177,-82,o),
(248,-8,cs),
(304,50,o),
(348,115,o),
(352,162,cs),
(359,228,o),
(369,292,o),
(375,356,cs)
);
},
{
closed = 1;
nodes = (
(232,196,o),
(369,298,o),
(375,360,cs),
(383,433,o),
(387,506,o),
(394,576,cs),
(395,584,o),
(416,619,o),
(482,620,cs),
(502,621,o),
(522,621,o),
(542,621,cs),
(573,622,o),
(615,658,o),
(641,693,cs),
(667,728,o),
(677,763,o),
(642,763,cs),
(622,762,o),
(602,762,o),
(582,762,cs),
(533,761,o),
(457,712,o),
(391,649,cs),
(324,585,o),
(267,508,o),
(262,454,cs),
(255,388,o),
(245,324,o),
(239,260,cs)
);
}
);
width = 585;
}
);
unicode = 8747;
},
{
glyphname = product;
lastChange = "2024-01-24 11:00:25 +0000";
layers = (
{
layerId = m01;
shapes = (
{
closed = 1;
nodes = (
(263,728,o),
(224,718,o),
(187,689,cs),
(159,668,o),
(131,636,o),
(124,607,cs),
(115,570,o),
(22,8,o),
(22,6,cs),
(16,-30,o),
(49,-22,o),
(83,3,cs),
(114,25,o),
(147,63,o),
(152,94,cs),
(156,119,o),
(241,643,o),
(252,685,cs)
);
},
{
closed = 1;
nodes = (
(55,717,o),
(38,683,o),
(24,645,cs),
(6,599,o),
(-7,547,o),
(4,547,cs),
(180,548,o),
(355,548,o),
(531,548,cs),
(542,548,o),
(565,599,o),
(580,644,cs),
(593,683,o),
(601,718,o),
(591,718,cs),
(415,717,o),
(240,717,o),
(64,717,cs)
);
},
{
closed = 1;
nodes = (
(480,728,o),
(441,718,o),
(403,689,cs),
(375,667,o),
(348,636,o),
(341,607,cs),
(332,570,o),
(240,8,o),
(240,6,cs),
(233,-36,o),
(279,-18,o),
(318,17,cs),
(343,39,o),
(366,68,o),
(370,94,cs),
(374,119,o),
(458,643,o),
(469,685,cs)
);
}
);
width = 600;
}
);
unicode = 8719;
},
{
glyphname = summation;
lastChange = "2024-01-24 11:00:25 +0000";
layers = (
{
layerId = m01;
shapes = (
{
closed = 1;
nodes = (
(84,163,o),
(25,-7,o),
(62,-7,cs),
(87,-7,o),
(356,-9,o),
(385,-9,cs),
(396,-9,o),
(420,45,o),
(436,92,cs),
(448,128,o),
(454,161,o),
(445,161,cs),
(416,161,o),
(145,163,o),
(118,163,cs)
);
},
{
closed = 1;
nodes = (
(455,549,o),
(477,597,o),
(493,641,cs),
(507,681,o),
(515,719,o),
(505,719,cs),
(482,719,o),
(197,715,o),
(191,718,cs),
(173,730,o),
(124,559,o),
(127,552,cs),
(130,544,o),
(235,309,o),
(251,278,cs),
(261,258,o),
(345,374,o),
(335,394,cs),
(318,428,o),
(198,703,o),
(193,716,c),
(172,661,o),
(150,605,o),
(129,550,c),
(139,543,o),
(422,549,o),
(445,549,cs)
);
},
{
closed = 1;
nodes = (
(351,401,o),
(322,411,o),
(287,400,cs),
(266,393,o),
(243,379,o),
(228,357,cs),
(207,327,o),
(77,121,o),
(64,81,cs),
(56,55,o),
(78,50,o),
(104,58,cs),
(133,67,o),
(167,90,o),
(176,117,cs),
(179,128,o),
(309,340,o),
(326,365,cs)
);
}
);
width = 559;
}
);
unicode = 8721;
},
{
glyphname = radical;
lastChange = "2024-01-24 11:33:22 +0000";
layers = (
{
layerId = m01;
shapes = (
{
closed = 1;
nodes = (
(114,375,o),
(91,345,o),
(73,305,cs),
(55,265,o),
(43,215,o),
(54,196,cs),
(58,189,o),
(92,132,o),
(129,71,cs),
(173,-1,o),
(222,-79,o),
(231,-83,cs),
(249,-92,o),
(311,77,o),
(293,85,cs),
(290,87,o),
(256,140,o),
(221,199,cs),
(177,271,o),
(129,351,o),
(126,356,cs)
);
},
{
closed = 1;
nodes = (
(655,540,o),
(679,593,o),
(694,640,cs),
(707,677,o),
(714,710,o),
(704,710,cs),
(687,710,o),
(472,706,o),
(468,709,cs),
(453,722,o),
(389,555,o),
(406,541,cs),
(414,534,o),
(627,540,o),
(644,540,cs)
);
},
{
closed = 1;
nodes = (
(542,649,o),
(435,625,o),
(407,570,cs),
(403,561,o),
(373,462,o),
(339,345,cs),
(289,171,o),
(228,-43,o),
(224,-59,cs),
(208,-114,o),
(322,-70,o),
(336,-21,cs),
(342,-1,o),
(397,191,o),
(444,355,cs),
(480,480,o),
(511,588,o),
(513,592,cs)
);
}
);
width = 629;
}
);
unicode = 8730;
},
{
glyphname = partialdiff;
lastChange = "2024-01-24 11:33:34 +0000";
layers = (
{
layerId = m01;
shapes = (
{
closed = 1;
nodes = (
(51,30,o),
(141,139,o),
(141,186,cs),
(141,238,o),
(195,285,o),
(246,297,cs),
(294,308,o),
(339,287,o),
(331,205,cs),
(324,139,o),
(403,237,o),
(409,299,cs),
(420,408,o),
(347,457,o),
(264,440,cs),
(165,420,o),
(51,304,o),
(51,80,cs)
);
},
{
closed = 1;
nodes = (
(365,703,o),
(317,659,o),
(352,591,cs),
(393,509,o),
(395,415,o),
(375,333,cs),
(348,222,o),
(281,134,o),
(217,132,cs),
(185,131,o),
(154,151,o),
(130,201,cs),
(113,234,o),
(36,101,o),
(52,69,cs),
(78,17,o),
(115,-8,o),
(156,-12,cs),
(280,-25,o),
(442,154,o),
(454,380,cs),
(458,462,o),
(442,550,o),
(398,637,cs)
);
}
);
width = 505;
}
);
unicode = 8706;
},
{
glyphname = percent;
lastChange = "2024-01-24 11:33:48 +0000";
layers = (
{
layerId = m01;
shapes = (
{
closed = 1;
nodes = (
(603,696,o),
(602,720,o),
(584,724,cs),
(564,728,o),
(526,709,o),
(491,664,cs),
(447,607,o),
(116,48,o),
(112,42,cs),
(92,8,o),
(95,-9,o),
(110,-12,cs),
(133,-16,o),
(185,15,o),
(216,66,cs),
(229,88,o),
(556,634,o),
(571,654,cs)
);
},
{
closed = 1;
nodes = (
(260,708,o),
(199,715,o),
(130,628,cs),
(39,514,o),
(36,428,o),
(69,383,cs),
(97,344,o),
(153,335,o),
(203,364,cs),
(253,393,o),
(328,544,o),
(269,510,cs),
(222,483,o),
(198,500,o),
(186,527,cs),
(173,558,o),
(177,604,o),
(186,616,cs)
);
},
{
closed = 1;
nodes = (
(186,433,o),
(178,336,o),
(247,412,cs),
(382,559,o),
(399,651,o),
(371,697,cs),
(342,745,o),
(264,745,o),
(214,709,cs),
(154,667,o),
(79,538,o),
(150,589,cs),
(204,626,o),
(229,601,o),
(241,568,cs),
(251,539,o),
(251,504,o),
(249,502,cs)
);
},
{
closed = 1;
nodes = (
(546,357,o),
(485,364,o),
(416,277,cs),
(331,171,o),
(323,89,o),
(349,42,cs),
(375,-5,o),
(435,-18,o),
(489,13,cs),
(539,42,o),
(614,193,o),
(555,159,cs),
(507,131,o),
(482,149,o),
(471,178,cs),
(459,209,o),
(463,253,o),
(472,265,cs)
);
},
{
closed = 1;
nodes = (
(472,82,o),
(464,-15,o),
(533,61,cs),
(691,234,o),
(688,330,o),
(638,367,cs),
(602,393,o),
(542,388,o),
(500,358,cs),
(440,316,o),
(365,187,o),
(436,238,cs),
(488,274,o),
(514,251,o),
(526,220,cs),
(537,190,o),
(537,153,o),
(535,151,cs)
);
}
);
width = 718;
}
);
unicode = 37;
},
{
glyphname = perthousand;
lastChange = "2024-01-24 11:34:03 +0000";
layers = (
{
layerId = m01;
shapes = (
{
closed = 1;
nodes = (
(603,696,o),
(602,720,o),
(584,724,cs),
(565,728,o),
(526,709,o),
(491,664,cs),
(447,607,o),
(116,48,o),
(112,42,cs),
(85,-4,o),
(100,-18,o),
(128,-10,cs),
(154,-2,o),
(191,25,o),
(216,66,cs),
(229,88,o),
(556,634,o),
(571,654,cs)
);
},
{
closed = 1;
nodes = (
(260,708,o),
(199,715,o),
(130,628,cs),
(32,505,o),
(36,414,o),
(78,373,cs),
(108,343,o),
(158,338,o),
(203,364,cs),
(253,393,o),
(328,544,o),
(269,510,cs),
(229,487,o),
(205,496,o),
(192,516,cs),
(172,546,o),
(176,603,o),
(186,616,cs)
);
},
{
closed = 1;
nodes = (
(186,433,o),
(178,336,o),
(247,412,cs),
(398,577,o),
(402,672,o),
(358,712,cs),
(324,744,o),
(258,741,o),
(214,709,cs),
(154,667,o),
(79,538,o),
(150,589,cs),
(194,619,o),
(219,608,o),
(233,585,cs),
(251,555,o),
(251,505,o),
(249,502,cs)
);
},
{
closed = 1;
nodes = (
(546,357,o),
(485,364,o),
(416,277,cs),
(323,160,o),
(322,72,o),
(358,28,cs),
(387,-8,o),
(441,-15,o),
(489,13,cs),
(539,42,o),
(614,193,o),
(555,159,cs),
(511,134,o),
(486,147,o),
(474,172,cs),
(458,203,o),
(462,253,o),
(472,265,cs)
);
},
{
closed = 1;
nodes = (
(472,82,o),
(464,-15,o),
(533,61,cs),
(692,235,o),
(688,332,o),
(637,367,cs),
(601,393,o),
(541,388,o),
(500,358,cs),
(440,316,o),
(365,187,o),
(436,238,cs),
(488,274,o),
(514,251,o),
(526,220,cs),
(537,191,o),
(537,153,o),
(535,151,cs)
);
},
{
closed = 1;
nodes = (
(875,357,o),
(814,364,o),
(745,277,cs),
(654,162,o),
(651,76,o),
(685,31,cs),
(713,-7,o),
(768,-16,o),
(818,13,cs),
(868,42,o),
(943,193,o),
(884,159,cs),
(839,133,o),
(815,147,o),
(803,173,cs),
(787,204,o),
(791,253,o),
(801,265,cs)
);
},
{
closed = 1;
nodes = (
(801,82,o),
(793,-15,o),
(862,61,cs),
(1016,230,o),
(1017,326,o),
(970,364,cs),
(935,393,o),
(872,389,o),
(829,358,cs),
(769,316,o),
(694,187,o),
(765,238,cs),
(810,269,o),
(836,256,o),
(849,232,cs),
(866,201,o),
(866,153,o),
(864,151,cs)
);
}
);
width = 1047;
}
);
unicode = 8240;
},
{
glyphname = dieresiscomb;
lastChange = "2024-01-24 09:55:08 +0000";
layers = (
{
layerId = m01;
shapes = (
{
closed = 1;
nodes = (
(382.763,865.197,o),
(419.288,970.987,o),
(336.914,903.323,cs),
(272,850,o),
(235,760,o),
(265,740,cs),
(274,734,o),
(288,734,o),
(307.902,741.556,cs),
(350.431,758.019,o),
(436.575,912.758,o),
(384.098,892.444,cs),
(383.168,892.084,o),
(308.246,803.987,o),
(309.086,804.677,cs)
);
},
{
closed = 1;
nodes = (
(313.943,842.696,o),
(264.28,709.971,o),
(330.945,759.97,cs),
(423,829,o),
(451,919,o),
(417,934,cs),
(407,939,o),
(392,937,o),
(372.613,927,cs),
(325.602,903.494,o),
(227.849,763.231,o),
(287.387,793,cs),
(288.287,793.45,o),
(370.255,884.93,o),
(369.055,884.03,cs)
);
},
{
closed = 1;
nodes = (
(207.763,865.197,o),
(244.288,970.987,o),
(161.914,903.323,cs),
(105,857,o),
(70,782,o),
(82,750,cs),
(87,736,o),
(104,730,o),
(132.902,741.556,cs),
(175.431,758.019,o),
(261.575,912.758,o),
(209.098,892.444,cs),
(208.168,892.084,o),
(133.246,803.987,o),
(134.086,804.677,cs)
);
},
{
closed = 1;
nodes = (
(138.943,842.696,o),
(89.28,709.971,o),
(155.945,759.97,cs),
(243,825,o),
(273,909,o),
(247,931,cs),
(238,939,o),
(221,939,o),
(197.613,927,cs),
(150.602,903.494,o),
(52.849,763.231,o),
(112.387,793,cs),
(113.287,793.45,o),
(195.255,884.93,o),
(194.055,884.03,cs)
);
}
);
width = 371;
}
);
unicode = 776;
},
{
glyphname = dotaccentcomb;
lastChange = "2024-01-24 12:36:24 +0000";
layers = (
{
layerId = m01;
shapes = (
{
closed = 1;
nodes = (
(129,865,o),
(165,971,o),
(83,903,cs),
(23,854,o),
(-13,774,o),
(5,746,cs),
(12,735,o),
(28,731,o),
(54,742,cs),
(96,758,o),
(183,913,o),
(130,892,cs),
(129,892,o),
(54,804,o),
(55,805,cs)
);
},
{
closed = 1;
nodes = (
(60,843,o),
(10,710,o),
(77,760,cs),
(167,827,o),
(195,914,o),
(166,933,cs),
(156,939,o),
(140,938,o),
(119,927,cs),
(72,903,o),
(-26,763,o),
(33,793,cs),
(34,793,o),
(116,885,o),
(115,884,cs)
);
}
);
width = 177;
}
);
unicode = 775;
},
{
glyphname = acutecomb;
lastChange = "2024-01-24 12:36:31 +0000";
layers = (
{
layerId = m01;
shapes = (
{
closed = 1;
nodes = (
(-3,724,o),
(32,734,o),
(67,750,cs),
(101,766,o),
(136,788,o),
(138,800,cs),
(139,801,o),
(180,900,o),
(182,905,cs),
(195,944,o),
(141,932,o),
(92,904,cs),
(59,886,o),
(28,861,o),
(20,839,cs),
(20,839,o),
(11,797,o),
(0,738,cs)
);
}
);
width = 184;
}
);
unicode = 769;
},
{
glyphname = dotbelowcomb;
lastChange = "2024-01-24 12:36:47 +0000";
layers = (
{
layerId = m01;
shapes = (
{
closed = 1;
nodes = (
(128,-104,o),
(164,2,o),
(82,-66,cs),
(-1,-134,o),
(-39,-263,o),
(53,-227,cs),
(95,-211,o),
(182,-56,o),
(129,-77,cs),
(128,-77,o),
(53,-165,o),
(54,-164,cs)
);
},
{
closed = 1;
nodes = (
(59,-126,o),
(9,-259,o),
(76,-209,cs),
(195,-120,o),
(207,3,o),
(118,-42,cs),
(71,-66,o),
(-27,-206,o),
(32,-176,cs),
(33,-176,o),
(115,-84,o),
(114,-85,cs)
);
}
);
width = 176;
}
);
unicode = 803;
},
{
glyphname = dieresisbelowcomb;
lastChange = "2024-01-24 12:36:54 +0000";
layers = (
{
layerId = m01;
shapes = (
{
closed = 1;
nodes = (
(303,-104,o),
(339,2,o),
(257,-66,cs),
(174,-134,o),
(136,-263,o),
(228,-227,cs),
(270,-211,o),
(357,-56,o),
(304,-77,cs),
(303,-77,o),
(228,-165,o),
(229,-164,cs)
);
},
{
closed = 1;
nodes = (
(234,-126,o),
(184,-259,o),
(251,-209,cs),
(370,-120,o),
(382,3,o),
(293,-42,cs),
(246,-66,o),
(148,-206,o),
(207,-176,cs),
(208,-176,o),
(290,-84,o),
(289,-85,cs)
);
},
{
closed = 1;
nodes = (
(128,-104,o),
(164,2,o),
(82,-66,cs),
(-1,-134,o),
(-39,-263,o),
(53,-227,cs),
(95,-211,o),
(182,-56,o),
(129,-77,cs),
(128,-77,o),
(53,-165,o),
(54,-164,cs)
);
},
{
closed = 1;
nodes = (
(59,-126,o),
(9,-259,o),
(76,-209,cs),
(195,-120,o),
(207,3,o),
(118,-42,cs),
(71,-66,o),
(-27,-206,o),
(32,-176,cs),
(33,-176,o),
(115,-84,o),
(114,-85,cs)
);
}
);
width = 351;
}
);
unicode = 804;
},
